comic-neue-angular_light-oblique.sfdir
StartChar: exclam
Encoding: 33 33 94
Width: 175
Flags: MW
HStem: 2 21G<6 6> 678 20G<196 196>
LayerCount: 2
Back
Fore
SplineSet
83 165 m 1
 45 156 l 1
 158 691 l 1
 196 698 l 1
 83 165 l 1
64 73 m 1
 43 9 l 1
 6 2 l 1
 26 66 l 1
 64 73 l 1
EndSplineSet
EndChar
StartChar: quotedbl
Encoding: 34 34 114
Width: 302
Flags: MW
HStem: 523 21G<130 130 255 255> 676 20G<201 201 326 326>
LayerCount: 2
Back
Fore
SplineSet
166 530 m 1
 130 523 l 1
 165 688 l 1
 201 696 l 1
 166 530 l 1
291 530 m 1
 255 523 l 1
 290 688 l 1
 326 696 l 1
 291 530 l 1
EndSplineSet
EndChar
StartChar: numbersign
Encoding: 35 35 86
Width: 741
Flags: MW
HStem: 1 21G<97 97 315 315> 221 35<74 206 56 225 260 425 74 242 479 625> 449 34<163 321 146 338 163 356 374 540 592 721> 680 20G<482 482>
LayerCount: 2
Back
Fore
SplineSet
721 449 m 1
 575 449 l 1
 479 256 l 1
 643 256 l 1
 625 221 l 1
 460 221 l 1
 353 4 l 1
 315 1 l 1
 425 221 l 1
 242 221 l 1
 134 4 l 1
 97 1 l 1
 206 221 l 1
 56 221 l 1
 74 256 l 1
 225 256 l 1
 321 449 l 1
 146 449 l 1
 163 483 l 1
 338 483 l 1
 446 697 l 1
 482 700 l 1
 374 483 l 1
 557 483 l 1
 662 696 l 1
 701 699 l 1
 592 483 l 1
 737 483 l 1
 721 449 l 1
443 256 m 1
 540 449 l 1
 356 449 l 1
 260 256 l 1
 443 256 l 1
EndSplineSet
EndChar
StartChar: dollar
Encoding: 36 36 101
Width: 595
Flags: MW
HStem: -76 21G<223 223> -1 39<239 247> 647 41<411 420> 739 20G<435 435>
VStem: 155 47<478.5 547.5 478.5 563> 485 46<158.5 248> 567 38<572 592.5>
LayerCount: 2
Back
Fore
SplineSet
411 647 m 1
 354 381 l 1
 471 345 531 290 531 218 c 0
 531 93 394 12 274 0 c 1
 259 -69 l 1
 223 -76 l 1
 239 -1 l 1
 132 7 56 58 43 140 c 1
 89 147 l 1
 105 81 172 40 247 38 c 1
 314 350 l 1
 234 376 155 421 155 496 c 0
 155 630 305 681 385 685 c 1
 399 752 l 1
 435 759 l 1
 420 688 l 1
 486 686 605 667 605 576 c 0
 605 568 604 560 602 551 c 2
 600 542 l 1
 563 533 l 1
 565 545 l 2
 566 551 567 557 567 563 c 0
 567 622 492 646 411 647 c 1
377 645 m 1
 302 636 202 594 202 501 c 0
 202 456 238 422 323 391 c 1
 377 645 l 1
282 39 m 1
 370 54 485 104 485 213 c 0
 485 283 417 313 346 340 c 1
 282 39 l 1
EndSplineSet
EndChar
StartChar: percent
Encoding: 37 37 96
Width: 718
Flags: MW
HStem: -8 35<459 511 459 514.5> 0 21G<91 135 91 91> 219 35<494 545.5> 440 35<215 267 215 271> 667 35<250 301.5>
VStem: 124 37<530.5 582 530.5 586> 357 36<560 611.5> 369 36<82.5 134 82.5 137> 601 36<112 163.5>
LayerCount: 2
Back
Fore
SplineSet
231 440 m 0xbe80
 168 440 124 485 124 544 c 0
 124 628 206 702 287 702 c 0
 350 702 393 657 393 598 c 0
 393 514 311 440 231 440 c 0xbe80
279 667 m 0
 221 667 161 612 161 552 c 0
 161 509 192 475 238 475 c 0
 296 475 357 530 357 590 c 0
 357 633 324 667 279 667 c 0
475 -8 m 0
 412 -8 369 36 369 95 c 0xbd80
 369 179 449 254 530 254 c 0
 593 254 637 209 637 149 c 0
 637 66 554 -8 475 -8 c 0
523 219 m 0
 465 219 405 164 405 104 c 0
 405 61 436 27 482 27 c 0
 540 27 601 82 601 142 c 0
 601 185 568 219 523 219 c 0
634 697 m 1
 677 697 l 1
 135 0 l 1
 91 0 l 1x7e80
 634 697 l 1
EndSplineSet
EndChar
StartChar: ampersand
Encoding: 38 38 100
Width: 652
Flags: MW
HStem: -4 35<184.5 236.5> 663 35<350 404>
VStem: 40 37<108.5 208.5 108.5 210.5> 214 36<514.5 572.5 514.5 575> 470 34<555 600>
LayerCount: 2
Back
Fore
SplineSet
465 154 m 1
 544 26 l 1
 512 4 l 1
 439 122 l 1
 366 36 266 -4 207 -4 c 0
 121 -4 40 52 40 143 c 0
 40 278 165 343 266 393 c 1
 244 425 214 480 214 533 c 0
 214 617 305 698 388 698 c 0
 454 698 504 646 504 586 c 0
 504 483 421 435 321 383 c 1
 446 183 l 1
 461 205 494 263 520 312 c 1
 541 281 l 1
 514 232 480 175 465 154 c 1
380 663 m 0
 320 663 250 607 250 538 c 0
 250 491 280 439 302 411 c 1
 455 482 470 532 470 578 c 0
 470 622 428 663 380 663 c 0
214 31 m 0
 265 31 353 68 420 150 c 1
 286 368 l 1
 180 318 77 268 77 149 c 0
 77 68 155 31 214 31 c 0
EndSplineSet
EndChar
StartChar: quotesingle
Encoding: 39 39 113
Width: 178
Flags: MW
HStem: 523 21G<130 130> 676 20G<202 202>
LayerCount: 2
Back
Fore
SplineSet
167 530 m 1
 130 523 l 1
 165 688 l 1
 202 696 l 1
 167 530 l 1
EndSplineSet
EndChar
StartChar: parenleft
Encoding: 40 40 103
Width: 367
Flags: MW
HStem: -119 21G<178 178> 799 20G<400 400>
VStem: 75 37<169 328>
LayerCount: 2
Back
Fore
SplineSet
209 -94 m 1
 178 -119 l 1
 108 -30 75 98 75 222 c 0
 75 434 196 671 400 819 c 1
 416 792 l 1
 242 665 112 450 112 231 c 0
 112 107 148 -17 209 -94 c 1
EndSplineSet
EndChar
StartChar: parenright
Encoding: 41 41 102
Width: 367
Flags: MW
HStem: -118 21G<32 32> 799 20G<213 213>
VStem: 300 37<372.5 532.5 372.5 559>
LayerCount: 2
Back
Fore
SplineSet
181 794 m 1
 213 819 l 1
 306 717 337 589 337 476 c 0
 337 269 224 46 32 -118 c 1
 16 -91 l 1
 192 63 300 275 300 468 c 0
 300 650 211 759 181 794 c 1
EndSplineSet
EndChar
StartChar: asterisk
Encoding: 42 42 105
Width: 407
Flags: MW
HStem: 440 21G 693 20G<284 319 319 319>
LayerCount: 2
Back
Fore
SplineSet
265 578 m 1
 266 596 265 628 269 644 c 2
 284 713 l 1
 319 713 l 1
 304 644 l 2
 300 628 284 591 281 579 c 1
 299 588 330 604 347 609 c 2
 416 630 l 1
 419 597 l 1
 349 576 l 2
 334 571 295 567 282 564 c 1
 294 551 312 530 319 517 c 2
 347 461 l 1
 314 440 l 1
 286 497 l 2
 281 510 272 544 268 555 c 1
 257 538 237 508 225 495 c 2
 173 440 l 1
 148 461 l 1
 202 516 l 2
 215 529 247 555 257 563 c 1
 240 566 208 569 195 575 c 2
 133 596 l 1
 152 629 l 1
 213 607 l 2
 226 602 255 583 265 578 c 1
EndSplineSet
EndChar
StartChar: plus
Encoding: 43 43 104
Width: 431
Flags: MW
HStem: 91 21G<166 166> 233 36<68 196 53 204 239 367 68 231> 387 20G<268 268>
LayerCount: 2
Back
Fore
SplineSet
383 269 m 1
 367 233 l 1
 231 233 l 1
 202 98 l 1
 166 91 l 1
 196 233 l 1
 53 233 l 1
 68 269 l 1
 204 269 l 1
 231 399 l 1
 268 407 l 1
 239 269 l 1
 383 269 l 1
EndSplineSet
EndChar
StartChar: comma
Encoding: 44 44 72
Width: 307
Flags: MW
HStem: -125 21G<50 50> 40 20G<119 119>
LayerCount: 2
Back
Fore
SplineSet
119 60 m 1
 171 29 l 1
 50 -125 l 1
 22 -106 l 1
 99 -6 l 1
 67 16 l 1
 119 60 l 1
EndSplineSet
EndChar
StartChar: hyphen
Encoding: 45 45 112
Width: 432
Flags: MW
HStem: 232 36<85 353 71 367>
LayerCount: 2
Back
Fore
SplineSet
353 232 m 1
 71 232 l 1
 85 268 l 1
 367 268 l 1
 353 232 l 1
EndSplineSet
EndChar
StartChar: period
Encoding: 46 46 107
Width: 212
Flags: MW
HStem: 1 21G<22 22> 54 20G<99 99>
LayerCount: 2
Back
Fore
SplineSet
99 74 m 1
 77 9 l 1
 22 1 l 1
 42 66 l 1
 99 74 l 1
EndSplineSet
EndChar
StartChar: zero
Encoding: 48 48 54
Width: 604
Flags: MW
HStem: -3 36<204 314 204 320> 657 37<339 448.5>
VStem: 74 36<180 343.5> 542 36<346.5 510>
LayerCount: 2
Back
Fore
SplineSet
241 -3 m 0
 135 -3 74 97 74 229 c 0
 74 458 251 694 413 694 c 0
 518 694 578 595 578 464 c 0
 578 229 399 -3 241 -3 c 0
405 657 m 0
 273 657 110 454 110 237 c 0
 110 123 159 33 249 33 c 0
 379 33 542 237 542 452 c 0
 542 568 492 657 405 657 c 0
EndSplineSet
EndChar
StartChar: one
Encoding: 49 49 55
Width: 404
Flags: MW
HStem: 0 35<41 157 193 278 26 157> 656 20G<339 339>
LayerCount: 2
Back
Fore
SplineSet
193 35 m 1
 293 35 l 1
 278 0 l 1
 26 0 l 1
 41 35 l 1
 157 35 l 1
 286 595 l 1
 140 484 l 1
 123 511 l 1
 339 676 l 1
 193 35 l 1
EndSplineSet
EndChar
StartChar: two
Encoding: 50 50 56
Width: 514
Flags: MW
HStem: 0 35<54 397> 646 35<303.5 375>
VStem: 474 35<508.5 583>
LayerCount: 2
Back
Fore
SplineSet
54 35 m 1
 411 35 l 1
 397 0 l 1
 13 0 l 1
 16 18 l 2
 40 163 123 234 254 311 c 0
 409 403 474 470 474 547 c 0
 474 619 402 646 348 646 c 0
 257 646 183 583 155 554 c 1
 137 580 l 1
 172 616 252 681 355 681 c 0
 474 681 509 613 509 554 c 0
 509 439 384 351 265 281 c 0
 150 214 76 142 54 35 c 1
EndSplineSet
EndChar
StartChar: three
Encoding: 51 51 57
Width: 539
Flags: MW
HStem: -4 35<189 259.5> 655 36<317.5 395.5>
VStem: 432 40<183.5 284 157 286> 486 39<526 585.5>
LayerCount: 2
Back
Fore
SplineSet
356 390 m 1
 437 362 472 317 472 251 c 0
 472 63 300 -4 219 -4 c 0
 136 -4 57 35 43 121 c 1
 79 136 l 1
 92 74 152 31 226 31 c 0
 334 31 432 127 432 240 c 0
 432 332 350 363 254 367 c 1
 260 403 l 1
 387 415 486 482 486 562 c 0
 486 609 439 655 352 655 c 0
 283 655 221 616 195 597 c 1
 175 623 l 1
 206 646 276 691 359 691 c 0
 457 691 525 639 525 570 c 0
 525 482 444 417 356 390 c 1
EndSplineSet
EndChar
StartChar: four
Encoding: 52 52 58
Width: 508
Flags: MW
HStem: 2 21G<303 303> 179 28<100 339> 650 20G<479 479>
LayerCount: 2
Back
Fore
SplineSet
338 9 m 1
 303 2 l 1
 339 179 l 1
 32 179 l 1
 479 670 l 1
 380 205 l 1
 447 205 l 1
 432 173 l 1
 373 173 l 1
 338 9 l 1
100 207 m 1
 346 207 l 1
 423 566 l 1
 100 207 l 1
EndSplineSet
EndChar
StartChar: five
Encoding: 53 53 59
Width: 552
Flags: MW
HStem: 0 34<187.5 282.5> 449 34<312.5 371> 645 34<243 547 243 243>
VStem: 470 32<243 354.5>
LayerCount: 2
Back
Fore
SplineSet
208 0 m 0
 158 0 75 28 42 122 c 1
 77 134 l 1
 97 66 160 34 215 34 c 0
 353 34 470 177 470 309 c 0
 470 400 406 449 336 449 c 0
 270 449 199 412 157 365 c 1
 126 377 l 1
 220 679 l 1
 561 679 l 1
 547 645 l 1
 243 645 l 1
 173 422 l 1
 222 454 282 483 343 483 c 0
 450 483 502 402 502 310 c 0
 502 143 357 0 208 0 c 0
EndSplineSet
EndChar
StartChar: six
Encoding: 54 54 60
Width: 536
Flags: MW
HStem: -5 34<195.5 293.5 195.5 299.5> 405 35<296.5 337 296.5 337> 667 20G<440 440>
VStem: 51 34<119 189 112.5 281.5> 447 34<230 342>
LayerCount: 2
Back
Fore
SplineSet
440 687 m 1
 445 656 l 1
 339 612 211 506 141 382 c 1
 197 412 265 440 328 440 c 0
 346 440 481 434 481 296 c 0
 481 161 376 -5 223 -5 c 0
 102 -5 51 69 51 169 c 0
 51 394 232 592 440 687 c 1
115 324 m 1
 97 275 85 209 85 169 c 0
 85 56 160 29 231 29 c 0
 356 29 447 171 447 289 c 0
 447 395 353 405 321 405 c 0
 220 405 139 347 115 324 c 1
EndSplineSet
EndChar
StartChar: seven
Encoding: 55 55 61
Width: 491
Flags: MW
HStem: 4 21G<90 90> 647 35<157 516 157 577>
LayerCount: 2
Back
Fore
SplineSet
90 4 m 1
 64 20 l 1
 516 647 l 1
 157 647 l 1
 157 682 l 1
 577 682 l 1
 90 4 l 1
EndSplineSet
EndChar
StartChar: eight
Encoding: 56 56 62
Width: 537
Flags: MW
HStem: -3 36<183 266 183 280> 656 38<325.5 402>
VStem: 47 36<111 201.5> 155 36<477.5 544.5 477.5 556.5> 427 38<158.5 251> 485 36<520.5 594.5>
LayerCount: 2
Back
Fore
SplineSet
217 -3 m 0
 113 -3 47 55 47 139 c 0
 47 264 165 334 251 373 c 1
 198 398 155 436 155 494 c 0
 155 619 275 694 376 694 c 0
 465 694 521 644 521 570 c 0
 521 471 435 415 357 380 c 1
 426 341 465 285 465 221 c 0
 465 96 343 -3 217 -3 c 0
294 358 m 1
 209 326 83 271 83 144 c 0
 83 78 141 33 225 33 c 0
 307 33 427 89 427 213 c 0
 427 289 360 337 294 358 c 1
317 396 m 1
 415 435 485 474 485 567 c 0
 485 622 436 656 368 656 c 0
 275 656 191 586 191 503 c 0
 191 452 235 420 317 396 c 1
EndSplineSet
EndChar
StartChar: nine
Encoding: 57 57 63
Width: 536
Flags: MW
HStem: 0 21G<139 139> 249 34<240 280> 659 35<298.5 381.5>
VStem: 96 35<346 457.5 346 481.5> 494 32<497.5 570 409.5 576>
LayerCount: 2
Back
Fore
SplineSet
139 0 m 1
 132 32 l 1
 251 78 363 179 438 307 c 1
 381 277 312 249 248 249 c 0
 231 249 96 254 96 392 c 0
 96 571 241 694 356 694 c 0
 476 694 526 620 526 520 c 0
 526 299 349 85 139 0 c 1
462 364 m 1
 479 414 494 476 494 519 c 0
 494 633 417 659 346 659 c 0
 221 659 131 516 131 399 c 0
 131 293 224 283 256 283 c 0
 357 283 437 341 462 364 c 1
EndSplineSet
EndChar
StartChar: colon
Encoding: 58 58 71
Width: 240
Flags: MW
HStem: 1 21G<22 22> 422 20G<204 204>
LayerCount: 2
Back
Fore
SplineSet
204 442 m 1
 185 377 l 1
 128 369 l 1
 148 433 l 1
 204 442 l 1
98 74 m 1
 77 9 l 1
 22 1 l 1
 42 66 l 1
 98 74 l 1
EndSplineSet
EndChar
StartChar: semicolon
Encoding: 59 59 111
Width: 322
Flags: MW
HStem: -125 21G<50 50> 424 20G<276 276>
LayerCount: 2
Back
Fore
SplineSet
276 444 m 1
 256 379 l 1
 199 371 l 1
 219 435 l 1
 276 444 l 1
118 59 m 1
 170 28 l 1
 50 -125 l 1
 22 -106 l 1
 99 -6 l 1
 67 16 l 1
 118 59 l 1
EndSplineSet
EndChar
StartChar: less
Encoding: 60 60 109
Width: 558
Flags: MW
HStem: 2 21G<397 397> 480 20G<520 520>
LayerCount: 2
Back
Fore
SplineSet
397 2 m 1
 81 251 l 1
 520 500 l 1
 535 471 l 1
 145 250 l 1
 422 31 l 1
 397 2 l 1
EndSplineSet
EndChar
StartChar: equal
Encoding: 61 61 90
Width: 495
Flags: MW
HStem: 152 34<74 395 59 409> 311 36<108 429 93 443>
LayerCount: 2
Back
Fore
SplineSet
429 311 m 1
 93 311 l 1
 108 347 l 1
 443 347 l 1
 429 311 l 1
395 152 m 1
 59 152 l 1
 74 186 l 1
 409 186 l 1
 395 152 l 1
EndSplineSet
EndChar
StartChar: greater
Encoding: 62 62 65
Width: 558
Flags: MW
HStem: 2 21G<48 48> 480 20G<170 170>
LayerCount: 2
Back
Fore
SplineSet
48 2 m 1
 33 31 l 1
 422 252 l 1
 147 472 l 1
 170 500 l 1
 487 251 l 1
 48 2 l 1
EndSplineSet
EndChar
StartChar: question
Encoding: 63 63 108
Width: 532
Flags: MW
HStem: 2 21G<102 102> 686 36<302 401>
VStem: 498 36<506 591>
LayerCount: 2
Back
Fore
SplineSet
160 73 m 1
 140 9 l 1
 102 2 l 1
 122 66 l 1
 160 73 l 1
163 201 m 1
 349 341 l 2
 414 390 498 455 498 557 c 0
 498 625 458 686 344 686 c 0
 255 686 186 621 160 592 c 1
 140 616 l 1
 174 652 252 722 352 722 c 0
 465 722 534 659 534 564 c 0
 534 438 431 362 363 311 c 2
 174 170 l 1
 163 201 l 1
EndSplineSet
EndChar
StartChar: at
Encoding: 64 64 85
Width: 818
Flags: MW
HStem: -99 34<296.5 407.5 296.5 411.5> 98 35<563.5 642 563.5 643.5> 112 35<309 341.5> 391 34<393 447> 586 36<400 588.5>
VStem: 58 36<103 294.5 103 303.5> 231 36<187.5 250.5 187.5 254> 749 37<297.5 415.5>
LayerCount: 2
Back
Fore
SplineSet
357 -65 m 0xdf
 458 -65 540 -23 579 2 c 1
 611 -15 l 1
 574 -40 474 -99 349 -99 c 0
 178 -99 58 22 58 181 c 0
 58 426 288 622 512 622 c 0
 676 622 786 513 786 360 c 0
 786 225 706 98 581 98 c 0xdf
 513 98 469 140 462 198 c 1
 419 153 365 112 318 112 c 0
 264 112 231 143 231 199 c 0
 231 309 335 425 442 425 c 0
 473 425 502 418 527 397 c 1
 499 369 l 1
 478 383 459 391 435 391 c 0
 351 391 267 293 267 208 c 0
 267 167 292 147 326 147 c 0xbf
 386 147 454 235 482 276 c 1
 513 265 l 1
 504 246 499 225 499 207 c 0
 499 164 536 133 591 133 c 0
 693 133 749 241 749 354 c 0
 749 477 673 586 504 586 c 0
 294 586 94 404 94 185 c 0
 94 21 236 -65 357 -65 c 0xdf
EndSplineSet
EndChar
StartChar: B
Encoding: 66 66 28
Width: 592
Flags: MW
HStem: 0 34<13 141> 342 22 342 34<120 281 127 281 281 320> 646 35<185 185 185 357>
VStem: 504 35<146 272 127.5 275.5>
LayerCount: 2
Back
Fore
SplineSet
369 364 m 1xd8
 465 364 539 313 539 231 c 0
 539 24 198 0 71 0 c 2
 13 0 l 1
 157 681 l 1
 364 681 l 2
 480 681 544 631 544 548 c 0
 544 486 518 393 369 364 c 1xd8
120 342 m 1
 55 35 l 1
 68 34 70 34 79 34 c 0
 203 34 504 64 504 228 c 0
 504 323 391 342 320 342 c 2
 120 342 l 1
185 646 m 1
 127 376 l 1
 281 376 l 2xb8
 372 376 509 409 509 543 c 0
 509 596 477 646 357 646 c 2
 185 646 l 1
EndSplineSet
EndChar
StartChar: C
Encoding: 67 67 29
Width: 621
Flags: MW
HStem: -1 34<226.5 328.5> 647 34<338 463 333 466.5>
VStem: 52 35<177.5 301 177.5 303.5>
LayerCount: 2
Back
Fore
SplineSet
278 -1 m 0
 145 -1 52 93 52 226 c 0
 52 381 230 681 436 681 c 0
 490 681 543 661 585 623 c 1
 592 657 l 1
 619 657 l 1
 597 555 l 1
 570 555 l 1
 575 575 l 1
 553 609 510 647 423 647 c 0
 253 647 87 367 87 235 c 0
 87 120 167 33 286 33 c 0
 385 33 467 70 528 147 c 1
 546 124 l 1
 479 45 379 -1 278 -1 c 0
EndSplineSet
EndChar
StartChar: D
Encoding: 68 68 30
Width: 606
Flags: MW
HStem: -15 35<132 181 132 271.5> 646 34<157 185>
VStem: 536 35<312.5 432>
LayerCount: 2
Back
Fore
SplineSet
12 -1 m 1
 157 680 l 1
 461 678 571 554 571 391 c 0
 571 139 398 -15 145 -15 c 0
 111 -15 51 -10 12 -1 c 1
185 646 m 1
 53 27 l 1
 74 23 111 20 153 20 c 0
 209 20 295 29 369 70 c 0
 466 125 536 241 536 384 c 0
 536 480 492 550 406 595 c 0
 329 635 232 645 185 646 c 1
EndSplineSet
EndChar
StartChar: E
Encoding: 69 69 31
Width: 601
Flags: MW
HStem: 0 37<57 475> 336 37<129 502 121 521> 644 37<186 614 186 186>
LayerCount: 2
Back
Fore
SplineSet
57 37 m 1
 497 37 l 1
 475 0 l 1
 13 0 l 1
 157 681 l 1
 630 681 l 1
 614 644 l 1
 186 644 l 1
 129 373 l 1
 521 373 l 1
 502 336 l 1
 121 336 l 1
 57 37 l 1
EndSplineSet
EndChar
StartChar: F
Encoding: 70 70 52
Width: 495
Flags: MW
HStem: 2 21G<8 8> 327 38<122 453 114 468> 644 37<181 572 181 181>
LayerCount: 2
Back
Fore
SplineSet
572 644 m 1
 181 644 l 1
 122 365 l 1
 468 365 l 1
 453 327 l 1
 114 327 l 1
 46 9 l 1
 8 2 l 1
 152 681 l 1
 588 681 l 1
 572 644 l 1
EndSplineSet
EndChar
StartChar: G
Encoding: 71 71 32
Width: 734
Flags: MW
HStem: -2 35<237 375 237 414> 243 34<552.5 573> 648 34<362.5 520.5>
VStem: 68 37<199.5 353.5 199.5 356>
LayerCount: 2
Back
Fore
SplineSet
643 238 m 1
 617 178 529 -2 299 -2 c 0
 155 -2 68 104 68 252 c 0
 68 460 251 682 464 682 c 0
 605 682 683 597 695 489 c 1
 660 482 l 1
 653 584 584 648 457 648 c 0
 268 648 105 447 105 260 c 0
 105 139 167 33 307 33 c 0
 443 33 549 110 611 241 c 1
 590 243 576 243 570 243 c 0
 512 243 452 235 409 219 c 1
 417 256 l 1
 466 269 525 277 580 277 c 0
 617 277 655 273 685 267 c 1
 678 231 l 1
 670 233 658 237 643 238 c 1
EndSplineSet
EndChar
StartChar: H
Encoding: 72 72 33
Width: 673
Flags: MW
HStem: 3 21G<12 12 524 524> 659 20G<193 193 705 705>
LayerCount: 2
Back
Fore
SplineSet
666 672 m 1
 705 679 l 1
 564 18 l 1
 524 3 l 1
 600 361 l 1
 111 295 l 1
 52 18 l 1
 12 3 l 1
 154 672 l 1
 193 679 l 1
 119 333 l 1
 608 399 l 1
 666 672 l 1
EndSplineSet
EndChar
StartChar: I
Encoding: 73 73 34
Width: 427
Flags: MW
HStem: 0 37<25 153 190 306 11 153> 644 37<162 282 147 457 319 442 319 319>
LayerCount: 2
Back
Fore
SplineSet
442 644 m 1
 319 644 l 1
 190 37 l 1
 320 37 l 1
 306 0 l 1
 11 0 l 1
 25 37 l 1
 153 37 l 1
 282 644 l 1
 147 644 l 1
 162 681 l 1
 457 681 l 1
 442 644 l 1
EndSplineSet
EndChar
StartChar: J
Encoding: 74 74 35
Width: 459
Flags: MW
HStem: 1 32<140 214 140 217> 641 38<284 435 276 533 472 525 472 472>
VStem: 27 38<101.5 128.5>
LayerCount: 2
Back
Fore
SplineSet
284 679 m 1
 533 679 l 1
 525 641 l 1
 472 641 l 1
 369 157 l 2
 349 65 267 1 167 1 c 0
 81 1 27 51 27 123 c 0
 27 134 28 145 31 157 c 2
 36 183 l 1
 75 191 l 1
 68 157 l 2
 66 147 65 138 65 130 c 0
 65 73 106 33 174 33 c 0
 254 33 316 84 332 157 c 2
 435 641 l 1
 276 641 l 1
 284 679 l 1
EndSplineSet
EndChar
StartChar: K
Encoding: 75 75 36
Width: 567
Flags: MW
HStem: 2 21G<13 13> 659 20G<192 192>
LayerCount: 2
Back
Fore
SplineSet
469 32 m 1
 443 4 l 1
 112 304 l 1
 49 9 l 1
 13 2 l 1
 155 672 l 1
 192 679 l 1
 126 368 l 1
 558 675 l 1
 574 649 l 1
 134 336 l 1
 469 32 l 1
EndSplineSet
EndChar
StartChar: L
Encoding: 76 76 37
Width: 477
Flags: MW
HStem: 1 21G<13 13> 15 38 656 20G<193 193>
LayerCount: 2
Back
Fore
SplineSet
13 1 m 1
 155 669 l 1
 193 676 l 1
 58 40 l 1
 416 66 l 1
 412 30 l 1
 13 1 l 1
EndSplineSet
EndChar
StartChar: M
Encoding: 77 77 38
Width: 855
Flags: MW
HStem: 1 21G<333 333 723 723> 660 20G<758 758>
VStem: 311 32 723 37
LayerCount: 2
Back
Fore
SplineSet
723 622 m 1
 396 9 l 1
 333 1 l 1
 289 607 l 1
 34 9 l 1
 -3 2 l 1
 280 672 l 1
 320 679 l 1
 367 20 l 1
 714 672 l 1
 758 680 l 1
 762 9 l 1
 723 1 l 1
 723 622 l 1
EndSplineSet
EndChar
StartChar: N
Encoding: 78 78 39
Width: 605
Flags: MW
HStem: 1 21G<440 440> 660 20G<203 203>
LayerCount: 2
Back
Fore
SplineSet
600 672 m 1
 636 679 l 1
 494 12 l 1
 440 1 l 1
 182 631 l 1
 50 11 l 1
 14 3 l 1
 154 666 l 1
 203 680 l 1
 467 45 l 1
 600 672 l 1
EndSplineSet
EndChar
StartChar: P
Encoding: 80 80 41
Width: 535
Flags: MW
HStem: 2 21G<13 13> 245 36<101 108> 642 37<185 325.5>
VStem: 523 38<447.5 545.5>
LayerCount: 2
Back
Fore
SplineSet
101 245 m 1
 50 9 l 1
 13 2 l 1
 156 675 l 1
 180 677 227 679 262 679 c 0
 389 679 561 655 561 517 c 0
 561 323 295 251 101 245 c 1
185 642 m 1
 108 281 l 1
 373 292 523 388 523 507 c 0
 523 584 458 642 243 642 c 2
 185 642 l 1
EndSplineSet
EndChar
StartChar: Q
Encoding: 81 81 42
Width: 711
Flags: MW
HStem: -33 21G<589 589> -1 34<227 307> 644 35<375.5 518.5>
VStem: 55 42<181.5 348 181.5 356> 648 44<373 485.5>
LayerCount: 2
Back
Fore
SplineSet
500 83 m 1
 611 -1 l 1
 589 -33 l 1
 467 61 l 1
 404 22 337 -1 277 -1 c 0
 140 -1 55 103 55 240 c 0
 55 472 274 679 468 679 c 0
 606 679 692 576 692 440 c 0
 692 306 612 174 500 83 c 1
381 177 m 1
 476 107 l 1
 576 184 648 308 648 427 c 0
 648 544 579 644 458 644 c 0
 293 644 97 454 97 242 c 0
 97 121 169 33 285 33 c 0
 333 33 390 53 444 84 c 1
 344 158 l 1
 381 177 l 1
EndSplineSet
EndChar
StartChar: R
Encoding: 82 82 43
Width: 584
Flags: MW
HStem: 2 21G<13 13> 257 26 649 38<187 326>
VStem: 532 37<472 549.5>
LayerCount: 2
Back
Fore
SplineSet
187 649 m 1
 110 283 l 1
 356 292 532 389 532 510 c 0
 532 589 463 649 240 649 c 2
 187 649 l 1
100 242 m 1
 50 9 l 1
 13 2 l 1
 158 683 l 1
 180 685 226 687 261 687 c 0
 391 687 569 663 569 521 c 0
 569 423 478 326 314 278 c 1
 371 238 443 162 488 31 c 1
 456 6 l 1
 408 156 332 218 287 244 c 0
 272 253 243 257 220 257 c 0
 195 257 143 250 100 242 c 1
EndSplineSet
EndChar
StartChar: U
Encoding: 85 85 46
Width: 674
Flags: MW
HStem: 0 30<225 403 225 414.5> 658 20G<196 196 704 704>
VStem: 79 37<171.5 285.5>
LayerCount: 2
Back
Fore
SplineSet
287 0 m 0
 130 0 79 88 79 225 c 0
 79 346 130 565 157 671 c 1
 196 678 l 1
 179 613 116 363 116 230 c 0
 116 113 157 30 293 30 c 0
 513 30 577 253 616 434 c 0
 633 513 655 624 664 670 c 1
 704 678 l 1
 699 653 679 556 663 480 c 0
 613 247 542 0 287 0 c 0
EndSplineSet
EndChar
StartChar: W
Encoding: 87 87 48
Width: 868
Flags: MW
HStem: 1 21G<155 155 537 537> 660 20G<136 136 548 548>
VStem: 525 34
LayerCount: 2
Back
Fore
SplineSet
957 678 m 1
 588 10 l 1
 537 1 l 1
 514 626 l 1
 198 10 l 1
 155 1 l 1
 100 673 l 1
 136 680 l 1
 186 55 l 1
 501 671 l 1
 548 680 l 1
 571 48 l 1
 914 670 l 1
 957 678 l 1
EndSplineSet
EndChar
StartChar: X
Encoding: 88 88 49
Width: 670
Flags: MW
HStem: 5 21G<28 28 538 538> 656 20G<192 192 687 687>
LayerCount: 2
Back
Fore
SplineSet
385 344 m 1
 571 29 l 1
 538 5 l 1
 355 316 l 1
 28 5 l 1
 6 31 l 1
 338 345 l 1
 158 652 l 1
 192 676 l 1
 368 374 l 1
 687 676 l 1
 709 650 l 1
 385 344 l 1
EndSplineSet
EndChar
StartChar: Y
Encoding: 89 89 50
Width: 618
Flags: MW
HStem: 0 21G<123 162 123 123> 657 20G<117 156 156 156 667 707 707 707>
LayerCount: 2
Back
Fore
SplineSet
318 243 m 1
 667 677 l 1
 707 677 l 1
 162 0 l 1
 123 0 l 1
 290 210 l 1
 117 677 l 1
 156 677 l 1
 318 243 l 1
EndSplineSet
EndChar
StartChar: Z
Encoding: 90 90 51
Width: 611
Flags: MW
HStem: 0 42<17 510 53 494> 639 42<181 598 163 636>
LayerCount: 2
Back
Fore
SplineSet
17 0 m 1
 6 44 l 1
 598 639 l 1
 163 639 l 1
 181 681 l 1
 636 681 l 1
 647 637 l 1
 53 42 l 1
 510 42 l 1
 494 0 l 1
 17 0 l 1
EndSplineSet
EndChar
StartChar: bracketleft
Encoding: 91 91 77
Width: 305
Flags: MW
HStem: -129 35<31 143> 782 36<217 353 217 217>
LayerCount: 2
Back
Fore
SplineSet
143 -129 m 1
 -12 -129 l 1
 189 818 l 1
 367 818 l 1
 353 782 l 1
 217 782 l 1
 31 -94 l 1
 158 -94 l 1
 143 -129 l 1
EndSplineSet
EndChar
StartChar: backslash
Encoding: 92 92 81
Width: 482
Flags: MW
HStem: 0 21G<364 404 364 364> 681 20G<129 168 168 168>
LayerCount: 2
Back
Fore
SplineSet
168 701 m 1
 404 0 l 1
 364 0 l 1
 129 701 l 1
 168 701 l 1
EndSplineSet
EndChar
StartChar: bracketright
Encoding: 93 93 76
Width: 305
Flags: MW
HStem: -129 35<0 135 0 163 -15 135> 782 36<210 321 194 364>
LayerCount: 2
Back
Fore
SplineSet
210 818 m 1
 364 818 l 1
 163 -129 l 1
 -15 -129 l 1
 0 -94 l 1
 135 -94 l 1
 321 782 l 1
 194 782 l 1
 210 818 l 1
EndSplineSet
EndChar
StartChar: asciicircum
Encoding: 94 94 127
Width: 490
Flags: MW
HStem: 751 21G<245 245> 874 20G<396 396>
LayerCount: 2
Back
Fore
SplineSet
245 751 m 1
 229 779 l 1
 396 894 l 1
 490 779 l 1
 462 753 l 1
 381 843 l 1
 245 751 l 1
EndSplineSet
EndChar
StartChar: underscore
Encoding: 95 95 95
Width: 466
Flags: MW
HStem: -56 35<-68 406 -82 420>
LayerCount: 2
Back
Fore
SplineSet
406 -56 m 1
 -82 -56 l 1
 -68 -21 l 1
 420 -21 l 1
 406 -56 l 1
EndSplineSet
EndChar
StartChar: grave
Encoding: 96 96 128
Width: 490
Flags: MW
HStem: 758 21G<406 406> 893 20G<352 352>
LayerCount: 2
Back
Fore
SplineSet
440 778 m 1
 406 758 l 1
 304 888 l 1
 352 913 l 1
 440 778 l 1
EndSplineSet
EndChar
StartChar: a
Encoding: 97 97 2
Width: 494
Flags: MW
HStem: 2 21G<344 344> 7 37<190 211.5> 477 36<254.5 357.5>
VStem: 37 40<138.5 203 138.5 236.5>
LayerCount: 2
Back
Fore
SplineSet
482 475 m 1x70
 384 10 l 1
 344 2 l 1xb0
 357 65 l 1
 310 39 239 7 184 7 c 0
 94 7 37 69 37 164 c 0
 37 309 166 513 343 513 c 0
 396 513 442 497 482 475 c 1x70
190 44 m 0x70
 255 44 336 91 365 109 c 1
 442 450 l 1
 420 459 375 477 340 477 c 0
 147 477 77 235 77 171 c 0
 77 106 106 45 190 44 c 0x70
EndSplineSet
EndChar
StartChar: b
Encoding: 98 98 4
Width: 518
Flags: MW
HStem: 1 35<177.5 278 172 296.5> 452 38<310.5 389.5> 678 20G<198 198>
VStem: 450 37<265 357.5>
LayerCount: 2
Back
Fore
SplineSet
354 490 m 0
 455 490 487 419 487 340 c 0
 487 190 389 1 204 1 c 0
 151 1 93 20 57 35 c 1
 50 2 l 1
 13 9 l 1
 158 689 l 1
 198 698 l 1
 131 382 l 1
 182 445 267 490 354 490 c 0
203 36 m 0
 353 36 450 182 450 327 c 0
 450 388 429 452 350 452 c 0
 237 452 131 381 112 293 c 2
 64 69 l 1
 84 58 141 36 203 36 c 0
EndSplineSet
EndChar
StartChar: d
Encoding: 100 100 6
Width: 516
Flags: MW
HStem: 2 21G<350 350> 6 30<134 205> 460 35<237.5 338.5> 683 20G<553 553>
VStem: 38 37<126.5 196 126.5 251>
LayerCount: 2
Back
Fore
SplineSet
513 696 m 1x78
 553 703 l 1
 389 9 l 1
 350 2 l 1xb8
 372 97 l 1
 317 45 244 6 166 6 c 0
 75 6 38 76 38 158 c 0
 38 344 157 495 318 495 c 0
 374 495 422 475 458 457 c 1
 513 696 l 1x78
387 158 m 2
 448 417 l 1
 429 428 370 460 307 460 c 0
 124 460 75 235 75 157 c 0
 75 96 96 36 172 36 c 0x78
 283 36 379 123 387 158 c 2
EndSplineSet
EndChar
StartChar: f
Encoding: 102 102 8
Width: 322
Flags: MW
HStem: 2 21G<46 46> 470 32<72 145 59 152 195 314 72 183> 667 35<319.5 407>
LayerCount: 2
Back
Fore
SplineSet
407 702 m 1
 382 667 l 1
 257 667 220 622 195 502 c 1
 328 502 l 1
 314 470 l 1
 183 470 l 1
 85 9 l 1
 46 2 l 1
 145 470 l 1
 59 470 l 1
 72 502 l 1
 152 502 l 1
 183 649 257 702 389 702 c 2
 407 702 l 1
EndSplineSet
EndChar
StartChar: g
Encoding: 103 103 9
Width: 512
Flags: MW
HStem: -193 38<135.5 209> 0 34<150.5 222.5> 465 36<265.5 357> 486 20G<507 507>
VStem: 42 34<146.5 249>
LayerCount: 2
Back
Fore
SplineSet
507 506 m 1xd8
 390 9 l 2
 360 -121 271 -193 147 -193 c 0
 103 -193 62 -187 31 -181 c 1
 46 -144 l 1
 75 -149 115 -155 156 -155 c 0
 301 -155 341 -40 352 8 c 2
 374 103 l 1
 319 35 251 0 194 0 c 0
 100 0 42 72 42 175 c 0
 42 323 169 501 341 501 c 0xe8
 387 501 428 479 459 459 c 1
 468 500 l 1
 507 506 l 1xd8
415 269 m 2xd8
 448 425 l 1
 425 445 379 465 335 465 c 0xe8
 196 465 76 321 76 182 c 0
 76 111 105 34 196 34 c 0
 273 34 377 92 415 269 c 2xd8
EndSplineSet
EndChar
StartChar: h
Encoding: 104 104 3
Width: 494
Flags: MW
HStem: 2 21G<13 13 360 360> 470 35<332.5 385.5> 678 20G<198 198>
VStem: 422 36<339 402>
LayerCount: 2
Back
Fore
SplineSet
198 698 m 1
 116 315 l 1
 171 397 291 505 374 505 c 0
 433 505 458 462 458 377 c 0
 458 301 415 81 396 9 c 1
 360 2 l 1
 369 35 422 296 422 369 c 0
 422 435 405 470 366 470 c 0
 273 470 154 329 128 291 c 0
 109 264 98 227 91 194 c 2
 51 9 l 1
 13 2 l 1
 159 689 l 1
 198 698 l 1
EndSplineSet
EndChar
StartChar: i
Encoding: 105 105 10
Width: 183
Flags: MW
HStem: 2 21G<16 16> 675 20G<207 207>
LayerCount: 2
Back
Fore
SplineSet
120 493 m 1
 162 498 l 1
 58 9 l 1
 16 2 l 1
 120 493 l 1
207 695 m 1
 190 631 l 1
 149 624 l 1
 162 687 l 1
 207 695 l 1
EndSplineSet
EndChar
StartChar: j
Encoding: 106 106 11
Width: 303
Flags: MW
HStem: -187 32<9 63 9 79> 683 20G<333 333>
LayerCount: 2
Back
Fore
SplineSet
333 703 m 1
 312 639 l 1
 275 632 l 1
 292 696 l 1
 333 703 l 1
-94 -28 m 1
 -56 -21 l 1
 -46 -67 -18 -155 36 -155 c 0
 90 -155 127 -92 143 -16 c 0
 147 2 193 231 246 503 c 1
 286 511 l 1
 232 234 187 7 183 -10 c 0
 168 -81 124 -187 34 -187 c 0
 -51 -187 -88 -66 -94 -28 c 1
EndSplineSet
EndChar
StartChar: k
Encoding: 107 107 12
Width: 484
Flags: MW
HStem: 2 21G<15 15> 678 20G<199 199>
LayerCount: 2
Back
Fore
SplineSet
251 303 m 1
 257 294 333 167 409 30 c 1
 376 5 l 1
 327 115 257 227 218 280 c 1
 167 247 126 221 95 205 c 1
 54 9 l 1
 15 2 l 1
 159 689 l 1
 199 698 l 1
 104 245 l 1
 189 285 365 425 469 531 c 1
 495 510 l 1
 433 449 302 338 251 303 c 1
EndSplineSet
EndChar
StartChar: l
Encoding: 108 108 13
Width: 216
Flags: MW
HStem: 2 21G<36 36> 678 20G<222 222>
LayerCount: 2
Back
Fore
SplineSet
182 689 m 1
 222 698 l 1
 75 9 l 1
 36 2 l 1
 182 689 l 1
EndSplineSet
EndChar
StartChar: m
Encoding: 109 109 14
Width: 807
Flags: MW
HStem: 2 21G<10 10 351 351 666 666> 481 30<336.5 375.5>
VStem: 430 36 743 39<390 429>
LayerCount: 2
Back
Fore
SplineSet
127 313 m 0
 110 294 101 255 101 255 c 1
 48 9 l 1
 10 2 l 1
 112 482 l 1
 151 490 l 1
 120 344 l 1
 176 418 287 511 366 511 c 0
 429 511 464 489 466 383 c 1
 524 457 617 511 680 511 c 0
 728 511 782 490 782 400 c 0
 782 380 779 357 773 329 c 2
 705 9 l 1
 666 2 l 1
 735 326 l 2
 741 352 743 375 743 393 c 0
 743 465 705 479 673 479 c 0
 612 479 474 399 447 274 c 2
 390 9 l 1
 351 2 l 1
 422 336 l 2
 427 362 430 384 430 401 c 0
 430 472 391 481 360 481 c 0
 313 481 224 430 127 313 c 0
EndSplineSet
EndChar
StartChar: n
Encoding: 110 110 15
Width: 526
Flags: MW
HStem: 2 21G<13 13> 467 34<343 395>
VStem: 444 37
LayerCount: 2
Back
Fore
SplineSet
156 500 m 1
 109 282 l 1
 155 383 268 501 378 501 c 0
 443 501 477 465 481 397 c 1
 480 333 465 244 437 109 c 2
 416 10 l 1
 378 3 l 1
 408 144 l 2
 428 240 444 323 444 377 c 0
 444 441 422 467 368 467 c 0
 318 467 257 445 176 337 c 0
 127 272 92 202 76 126 c 2
 51 10 l 1
 13 2 l 1
 117 493 l 1
 156 500 l 1
EndSplineSet
EndChar
StartChar: o
Encoding: 111 111 16
Width: 525
Flags: MW
HStem: 0 32<164.5 260.5 164.5 265.5> 467 33<265.5 362>
VStem: 40 39<135.5 251 135.5 261.5> 452 40<242.5 358>
LayerCount: 2
Back
Fore
SplineSet
197 0 m 0
 100 0 40 76 40 176 c 0
 40 347 191 500 335 500 c 0
 431 500 492 424 492 325 c 0
 492 154 334 0 197 0 c 0
323 467 m 0
 208 467 79 325 79 177 c 0
 79 94 124 32 205 32 c 0
 316 32 452 170 452 315 c 0
 452 401 401 467 323 467 c 0
EndSplineSet
EndChar
StartChar: p
Encoding: 112 112 17
Width: 508
Flags: MW
HStem: -199 21G<-30 -30> 7 34<177.5 284 177.5 290.5> 460 36<317 361 317 380.5> 477 20G<155 155>
VStem: 441 35<267 369>
LayerCount: 2
Back
Fore
SplineSet
361 496 m 0xe8
 444 494 476 422 476 342 c 0
 476 192 380 7 201 7 c 0
 149 7 94 26 58 42 c 1
 9 -192 l 1
 -30 -199 l 1
 116 488 l 1
 155 497 l 1xd8
 137 412 l 1
 198 458 273 496 361 496 c 0xe8
209 41 m 0
 359 41 441 192 441 338 c 0
 441 400 419 460 342 460 c 0
 230 460 152 392 127 364 c 1
 67 80 l 1
 86 70 146 41 209 41 c 0
EndSplineSet
EndChar
StartChar: q
Encoding: 113 113 18
Width: 513
Flags: MW
HStem: -202 21G<296 296> -9 32<163 232.5> 463 33<299 384> 488 20G<472 507 507 507>
VStem: 35 33<118.5 243.5 118.5 244>
LayerCount: 2
Back
Fore
SplineSet
296 -202 m 1xd8
 359 56 l 1
 315 6 267 -9 198 -9 c 0
 98 -9 35 60 35 156 c 0
 35 332 191 496 380 496 c 0xe8
 402 496 431 493 467 487 c 1
 472 508 l 1
 507 508 l 1
 335 -195 l 1
 296 -202 l 1xd8
386 159 m 2
 459 454 l 1
 431 459 395 463 373 463 c 0
 225 463 68 327 68 160 c 0
 68 77 121 23 205 23 c 0
 295 23 364 72 386 159 c 2
EndSplineSet
EndChar
StartChar: r
Encoding: 114 114 19
Width: 391
Flags: MW
HStem: 2 21G<14 14> 466 36<304.5 347>
LayerCount: 2
Back
Fore
SplineSet
157 500 m 1
 128 366 l 1
 169 421 262 502 347 502 c 0
 384 502 410 480 410 449 c 0
 410 446 410 442 409 438 c 2
 401 404 l 1
 363 397 l 1
 368 419 l 2
 369 426 371 433 371 439 c 0
 371 455 362 466 332 466 c 0
 254 466 126 357 104 252 c 2
 52 9 l 1
 14 2 l 1
 118 493 l 1
 157 500 l 1
EndSplineSet
EndChar
StartChar: s
Encoding: 115 115 20
Width: 450
Flags: MW
HStem: 0 31<155.5 206.5> 475 30<272 323.5>
VStem: 105 37<346 394.5 346 420.5> 344 39<122 188.5> 402 34<420.5 433.5>
LayerCount: 2
Back
Fore
SplineSet
432 394 m 1
 400 386 l 1
 402 395 402 402 402 408 c 0
 402 459 347 475 300 475 c 0
 190 475 142 424 142 365 c 0
 142 327 179 304 249 284 c 0
 337 258 383 225 383 168 c 0
 383 35 234 0 179 0 c 0
 99 0 33 35 24 107 c 1
 60 112 l 1
 71 59 126 31 185 31 c 0
 262 31 344 84 344 160 c 0
 344 217 280 233 218 254 c 0
 161 274 105 297 105 360 c 0
 105 481 237 505 307 505 c 0
 357 505 436 490 436 424 c 0
 436 417 436 410 432 394 c 1
EndSplineSet
EndChar
StartChar: t
Encoding: 116 116 21
Width: 363
Flags: MW
HStem: 2 21G<111 111> 465 37<73 209 65 217 256 391 73 248> 656 20G<293 293>
LayerCount: 2
Back
Fore
SplineSet
399 502 m 1
 391 465 l 1
 248 465 l 1
 151 9 l 1
 111 2 l 1
 209 465 l 1
 65 465 l 1
 73 502 l 1
 217 502 l 1
 253 669 l 1
 293 676 l 1
 256 502 l 1
 399 502 l 1
EndSplineSet
EndChar
StartChar: v
Encoding: 118 118 23
Width: 437
Flags: MW
HStem: 2 21G<147 147> 478 20G<448 448>
LayerCount: 2
Back
Fore
SplineSet
479 483 m 1
 196 11 l 1
 147 2 l 1
 60 483 l 1
 100 497 l 1
 176 41 l 1
 448 498 l 1
 479 483 l 1
EndSplineSet
EndChar
StartChar: w
Encoding: 119 119 24
Width: 643
Flags: MW
HStem: 2 21G<85 85 381 381> 475 20G<128 128>
VStem: 87 37 375 34
LayerCount: 2
Back
Fore
SplineSet
413 40 m 1
 640 485 l 1
 682 494 l 1
 428 11 l 1
 381 2 l 1
 370 430 l 1
 134 11 l 1
 85 2 l 1
 90 486 l 1
 128 495 l 1
 121 43 l 1
 362 485 l 1
 406 494 l 1
 413 40 l 1
EndSplineSet
EndChar
StartChar: x
Encoding: 120 120 25
Width: 500
Flags: MW
HStem: 5 21G<398 398> 477 20G<136 136 519 519>
LayerCount: 2
Back
Fore
SplineSet
257 236 m 1
 -12 6 l 1
 -33 33 l 1
 237 260 l 1
 101 474 l 1
 136 497 l 1
 267 282 l 1
 519 497 l 1
 541 471 l 1
 288 257 l 1
 430 28 l 1
 398 5 l 1
 257 236 l 1
EndSplineSet
EndChar
StartChar: y
Encoding: 121 121 26
Width: 490
Flags: MW
HStem: -202 21G<62 62> 477 20G<492 492>
LayerCount: 2
Back
Fore
SplineSet
492 497 m 1
 523 480 l 1
 62 -202 l 1
 30 -185 l 1
 193 53 l 1
 70 479 l 1
 109 496 l 1
 221 98 l 1
 492 497 l 1
EndSplineSet
EndChar
StartChar: z
Encoding: 122 122 27
Width: 443
Flags: MW
HStem: 0 37<30 349 -4 363> 465 37<116 418 100 453>
LayerCount: 2
Back
Fore
SplineSet
349 0 m 1
 -4 0 l 1
 -15 35 l 1
 418 465 l 1
 100 465 l 1
 116 502 l 1
 453 502 l 1
 464 468 l 1
 30 37 l 1
 363 37 l 1
 349 0 l 1
EndSplineSet
EndChar
StartChar: braceleft
Encoding: 123 123 83
Width: 364
Flags: MW
HStem: -130 21G<222 222> 787 36<416 425>
VStem: 90 36<-32 -12> 142 35<252 273>
LayerCount: 2
Back
Fore
SplineSet
85 337 m 1
 92 371 l 1
 143 389 181 428 193 482 c 2
 235 679 l 2
 257 781 362 818 425 823 c 1
 416 787 l 1
 344 782 285 743 271 679 c 2
 229 483 l 2
 222 452 202 400 134 354 c 1
 159 331 177 298 177 257 c 0
 177 247 176 236 174 225 c 2
 129 14 l 2
 127 6 126 -2 126 -9 c 0
 126 -55 160 -85 232 -94 c 1
 222 -130 l 1
 168 -127 90 -99 90 -17 c 0
 90 -7 91 3 93 14 c 2
 140 233 l 2
 141 240 142 247 142 254 c 0
 142 292 120 324 85 337 c 1
EndSplineSet
EndChar
StartChar: bar
Encoding: 124 124 93
Width: 245
Flags: MW
HStem: -72 21G<37 37> 743 20G<250 250>
LayerCount: 2
Back
Fore
SplineSet
74 -65 m 1
 37 -72 l 1
 213 756 l 1
 250 763 l 1
 74 -65 l 1
EndSplineSet
EndChar
StartChar: braceright
Encoding: 125 125 82
Width: 364
Flags: MW
HStem: -130 36<-24 -14> 803 20G<179 179>
VStem: 274 37<705 725>
LayerCount: 2
Back
Fore
SplineSet
316 356 m 1
 309 322 l 1
 259 304 219 265 208 211 c 2
 166 14 l 2
 144 -88 39 -125 -24 -130 c 1
 -14 -94 l 1
 57 -89 116 -50 130 14 c 2
 172 210 l 2
 179 241 200 293 268 339 c 1
 242 361 223 395 223 437 c 0
 223 447 225 457 227 468 c 2
 272 679 l 2
 274 687 274 695 274 702 c 0
 274 748 241 778 170 787 c 1
 179 823 l 1
 233 819 311 792 311 710 c 0
 311 700 310 690 308 679 c 2
 261 460 l 2
 259 453 259 445 259 439 c 0
 259 401 281 369 316 356 c 1
EndSplineSet
EndChar
StartChar: asciitilde
Encoding: 126 126 89
Width: 635
Flags: MW
HStem: 156 36<391.5 434 391.5 449.5> 310 36<191.5 243>
LayerCount: 2
Back
Fore
SplineSet
557 321 m 1
 586 305 l 1
 562 261 495 156 404 156 c 0
 348 156 324 196 303 235 c 0
 283 273 264 310 222 310 c 0
 151 310 103 230 86 197 c 1
 58 211 l 1
 90 274 153 346 230 346 c 0
 287 346 311 303 333 263 c 0
 353 227 372 192 411 192 c 0
 457 192 519 250 557 321 c 1
EndSplineSet
EndChar
StartChar: exclamdown
Encoding: 161 161 214
Width: 175
Flags: MW
HStem: -198 21G<-36 -36> 478 20G<154 154>
LayerCount: 2
Back
Fore
SplineSet
78 335 m 1
 115 344 l 1
 1 -191 l 1
 -36 -198 l 1
 78 335 l 1
96 427 m 1
 116 491 l 1
 154 498 l 1
 134 434 l 1
 96 427 l 1
EndSplineSet
EndChar
StartChar: cent
Encoding: 162 162 99
Width: 496
Flags: MW
HStem: 4 21G<179 179> 101 33<233 274.5> 571 32<353 368.5> 671 20G<373 373>
VStem: 60 36<246 305.5 246 331.5>
LayerCount: 2
Back
Fore
SplineSet
233 101 m 1
 213 15 l 1
 179 4 l 1
 202 103 l 1
 107 124 60 193 60 272 c 0
 60 391 171 558 320 601 c 1
 339 681 l 1
 373 691 l 1
 353 603 l 1
 412 603 455 578 479 539 c 1
 447 513 l 1
 429 546 393 571 344 571 c 1
 241 134 l 1
 308 134 375 170 416 216 c 1
 436 191 l 1
 387 136 318 104 233 101 c 1
210 136 m 1
 312 568 l 1
 150 511 96 333 96 278 c 0
 96 214 132 155 210 136 c 1
EndSplineSet
EndChar
StartChar: sterling
Encoding: 163 163 98
Width: 754
Flags: MW
HStem: -10 35<468 505> 74 35<268.5 282.5> 342 34<107 218 107 220 93 218 252 506> 700 35<425 560.5>
VStem: 218 34<376 376> 661 37<534 597.5 557 593>
LayerCount: 2
Back
Fore
SplineSet
633 140 m 1
 667 134 l 1
 618 15 526 -10 484 -10 c 0
 434 -10 379 13 334 50 c 0
 315 66 296 74 269 74 c 0
 244 74 176 57 108 5 c 1
 90 30 l 1
 178 99 223 159 223 276 c 0
 223 294 222 316 220 342 c 1
 93 342 l 1
 107 376 l 1
 218 376 l 1
 218 606 329 735 516 735 c 0
 665 735 698 634 698 561 c 0
 698 553 698 545 697 538 c 1
 661 534 l 2
 661 538 661 542 661 547 c 0
 661 639 618 700 503 700 c 0
 347 700 256 597 252 376 c 1
 520 376 l 1
 506 342 l 1
 252 342 l 1
 254 307 255 280 255 259 c 0
 255 191 240 153 200 93 c 1
 237 105 260 109 277 109 c 0
 314 109 336 95 361 77 c 0
 402 47 446 25 490 25 c 0
 556 25 598 64 633 140 c 1
EndSplineSet
EndChar
StartChar: currency
Encoding: 164 164 119
Width: 490
Flags: MW
HStem: 58 21G<35 35> 95 32<197.5 232> 374 32<264.5 298 264.5 304> 428 20G<118 118 461 461>
VStem: 89 32<209.5 243> 374 32<259 294.5>
LayerCount: 2
Back
Fore
SplineSet
406 283 m 0
 406 235 383 191 349 154 c 1
 406 82 l 1
 378 59 l 1
 321 130 l 1
 286 108 249 95 215 95 c 0
 180 95 147 108 122 130 c 1
 35 58 l 1
 17 81 l 1
 105 154 l 1
 94 175 89 198 89 221 c 0
 89 265 112 310 148 350 c 1
 90 425 l 1
 118 448 l 1
 177 373 l 1
 212 395 248 406 281 406 c 0
 315 406 345 395 371 373 c 1
 461 448 l 1
 479 425 l 1
 389 350 l 1
 401 329 406 306 406 283 c 0
221 127 m 0
 298 127 374 197 374 278 c 0
 374 334 334 374 274 374 c 0
 197 374 121 305 121 224 c 0
 121 168 161 127 221 127 c 0
EndSplineSet
EndChar
StartChar: yen
Encoding: 165 165 80
Width: 575
Flags: MW
HStem: 2 21G<212 212> 140 35<102 241 87 249 284 422 102 276> 300 34<135 258 135 275 121 258 342 456> 677 20G<164 204 204 204 564 604 604 604>
LayerCount: 2
Back
Fore
SplineSet
275 300 m 1
 121 300 l 1
 135 334 l 1
 258 334 l 1
 164 697 l 1
 204 697 l 1
 300 328 l 1
 564 697 l 1
 604 697 l 1
 342 334 l 1
 471 334 l 1
 456 300 l 1
 310 300 l 1
 284 175 l 1
 438 175 l 1
 422 140 l 1
 276 140 l 1
 248 9 l 1
 212 2 l 1
 241 140 l 1
 87 140 l 1
 102 175 l 1
 249 175 l 1
 275 300 l 1
EndSplineSet
EndChar
StartChar: section
Encoding: 167 167 122
Width: 465
Flags: MW
HStem: 0 34<159.5 250.5> 619 31<307 372.5>
VStem: 117 35<343 381.5 343 382> 148 33<505 549.5 491 569> 352 34<163 177 133 181.5> 382 35<307.5 331> 437 36<558 577.5>
LayerCount: 2
Back
Fore
SplineSet
467 530 m 1xda
 432 534 l 1
 435 539 437 553 437 560 c 0
 437 595 407 619 338 619 c 0
 250 619 181 581 181 518 c 0
 181 464 243 446 281 433 c 0
 357 407 417 386 417 317 c 0xd6
 417 288 410 255 376 217 c 1
 382 202 386 186 386 168 c 0
 386 98 314 0 187 0 c 0
 80 0 37 75 33 115 c 1
 70 121 l 1
 81 65 125 34 194 34 c 0
 346 34 352 163 352 163 c 1
 352 200 327 224 243 251 c 0
 157 278 117 309 117 362 c 0xea
 117 402 137 434 164 460 c 1
 154 477 148 495 148 515 c 0
 148 623 272 650 342 650 c 0
 433 650 473 612 473 563 c 0
 473 553 471 540 467 530 c 1xda
355 239 m 1
 381 263 382 302 382 313 c 0
 382 349 357 373 274 400 c 0
 241 411 212 424 188 440 c 1
 163 417 152 394 152 369 c 0xe6
 152 317 211 296 250 284 c 0
 287 272 332 254 355 239 c 1
EndSplineSet
EndChar
StartChar: dieresis
Encoding: 168 168 123
Width: 490
Flags: MW
HStem: 596 21G<208 208 374 374> 649 20G<285 285 452 452>
LayerCount: 2
Back
Fore
SplineSet
285 669 m 1
 264 604 l 1
 208 596 l 1
 228 660 l 1
 285 669 l 1
452 669 m 1
 430 604 l 1
 374 596 l 1
 395 660 l 1
 452 669 l 1
EndSplineSet
EndChar
StartChar: copyright
Encoding: 169 169 68
Width: 566
Flags: MW
HStem: 246 27<245.5 351 245.5 354> 362 28<290 327.5> 568 27<324.5 367> 671 27<316 422.5>
VStem: 108 27<384 493 384 495.5> 210 29<433 484 433 493.5> 532 28<449 559>
LayerCount: 2
Back
Fore
SplineSet
286 246 m 0
 180 246 108 322 108 423 c 0
 108 568 244 698 382 698 c 0
 488 698 560 621 560 519 c 0
 560 375 422 246 286 246 c 0
376 671 m 0
 256 671 135 557 135 429 c 0
 135 339 199 273 292 273 c 0
 410 273 532 384 532 514 c 0
 532 604 469 671 376 671 c 0
302 362 m 0
 248 362 210 401 210 450 c 0
 210 537 286 595 363 595 c 0
 388 595 419 585 439 557 c 1
 415 539 l 1
 401 556 377 568 357 568 c 0
 292 568 239 515 239 453 c 0
 239 413 272 390 308 390 c 0
 357 390 388 408 411 444 c 1
 436 435 l 1
 405 387 353 362 302 362 c 0
EndSplineSet
EndChar
StartChar: ordfeminine
Encoding: 170 170 212
Width: 240
Flags: MW
HStem: 369 21G<233 233> 373 30<126 153.5> 654 30<191.5 242.5>
VStem: 51 31<452 514 452 523.5>
LayerCount: 2
Back
Fore
SplineSet
325 661 m 1x70
 265 376 l 1
 233 369 l 1xb0
 240 403 l 1
 198 382 165 373 142 373 c 0
 86 373 51 413 51 470 c 0
 51 577 144 684 239 684 c 0
 261 684 299 677 325 661 c 1x70
247 441 m 1
 292 639 l 1
 276 649 252 654 233 654 c 0
 150 654 82 554 82 474 c 0
 82 430 106 403 146 403 c 0x70
 182 403 228 428 247 441 c 1
EndSplineSet
EndChar
StartChar: guillemotleft
Encoding: 171 171 87
Width: 599
Flags: MW
HStem: 73 21G<237 237 451 451> 415 20G<331 331 544 544>
LayerCount: 2
Back
Fore
SplineSet
237 73 m 1
 77 251 l 1
 331 435 l 1
 349 409 l 1
 130 251 l 1
 266 100 l 1
 237 73 l 1
451 73 m 1
 291 251 l 1
 544 435 l 1
 562 409 l 1
 344 251 l 1
 480 100 l 1
 451 73 l 1
EndSplineSet
EndChar
StartChar: logicalnot
Encoding: 172 172 213
Width: 506
Flags: MW
HStem: 123 21G<382 382> 276 32<93 415 79 455>
LayerCount: 2
Back
Fore
SplineSet
382 123 m 1
 415 276 l 1
 79 276 l 1
 93 308 l 1
 455 308 l 1
 417 134 l 1
 382 123 l 1
EndSplineSet
EndChar
StartChar: uni00AD
Encoding: 173 173 130
Width: 432
Flags: MW
HStem: 236 36<86 354 72 368>
LayerCount: 2
Back
Fore
SplineSet
368 272 m 1
 354 236 l 1
 72 236 l 1
 86 272 l 1
 368 272 l 1
EndSplineSet
EndChar
StartChar: registered
Encoding: 174 174 79
Width: 566
Flags: MW
HStem: 246 27<245.5 351 245.5 354> 246 237<280 280 280 354> 567 27<344 368> 671 27<316 422.5>
VStem: 108 27<384 493 384 495.5> 429 28<526.5 546.5> 532 28<449 559>
LayerCount: 2
Back
Fore
SplineSet
286 246 m 0xbe
 180 246 108 322 108 423 c 0
 108 568 244 698 382 698 c 0
 488 698 560 621 560 519 c 0
 560 375 422 246 286 246 c 0xbe
376 671 m 0
 256 671 135 557 135 429 c 0
 135 339 199 273 292 273 c 0
 410 273 532 384 532 514 c 0
 532 604 469 671 376 671 c 0
321 462 m 1
 406 393 l 1
 383 373 l 1
 273 462 l 1
 240 380 l 1
 212 376 l 1
 285 573 l 2
 290 584 294 594 361 594 c 0
 424 594 457 575 457 543 c 0
 457 497 389 476 321 462 c 1
309 564 m 1
 280 483 l 1x7e
 374 490 429 518 429 535 c 0
 429 558 387 567 349 567 c 0
 339 567 329 567 309 564 c 1
EndSplineSet
EndChar
StartChar: macron
Encoding: 175 175 215
Width: 490
Flags: MW
HStem: 611 36<216 441 200 456>
LayerCount: 2
Back
Fore
SplineSet
441 611 m 1
 200 611 l 1
 216 647 l 1
 456 647 l 1
 441 611 l 1
EndSplineSet
EndChar
StartChar: degree
Encoding: 176 176 70
Width: 257
Flags: MW
HStem: 521 37<172.5 221.5 172.5 226> 739 38<206 254>
VStem: 82 38<610.5 659.5 610.5 663.5> 305 39<639.5 688>
LayerCount: 2
Back
Fore
SplineSet
186 521 m 0
 124 521 82 564 82 622 c 0
 82 705 163 777 241 777 c 0
 302 777 344 734 344 677 c 0
 344 594 266 521 186 521 c 0
233 739 m 0
 179 739 120 688 120 631 c 0
 120 590 151 558 194 558 c 0
 249 558 305 611 305 668 c 0
 305 708 275 739 233 739 c 0
EndSplineSet
EndChar
StartChar: plusminus
Encoding: 177 177 216
Width: 425
Flags: MW
HStem: 0 33<18 311 32 297> 281 36<79 203 63 211 246 370 79 238> 432 20G<275 275>
LayerCount: 2
Back
Fore
SplineSet
18 0 m 1
 32 33 l 1
 311 33 l 1
 297 0 l 1
 18 0 l 1
387 317 m 1
 370 281 l 1
 238 281 l 1
 210 149 l 1
 174 142 l 1
 203 281 l 1
 63 281 l 1
 79 317 l 1
 211 317 l 1
 238 444 l 1
 275 452 l 1
 246 317 l 1
 387 317 l 1
EndSplineSet
EndChar
StartChar: twosuperior
Encoding: 178 178 217
Width: 227
Flags: MW
HStem: 457 26<79 263> 807 27<218 251.5>
VStem: 300 27<736 771>
LayerCount: 2
Back
Fore
SplineSet
130 755 m 1
 114 776 l 1
 144 806 194 834 240 834 c 0
 308 834 327 794 327 761 c 0
 327 698 248 642 192 610 c 0
 131 575 101 549 79 483 c 1
 274 483 l 1
 263 457 l 1
 48 457 l 1
 50 468 l 2
 65 548 106 588 182 632 c 0
 263 679 300 717 300 755 c 0
 300 787 269 807 234 807 c 0
 202 807 165 795 130 755 c 1
EndSplineSet
EndChar
StartChar: threesuperior
Encoding: 179 179 218
Width: 226
Flags: MW
HStem: 456 26<141.5 174 141.5 178> 654 25<178 178 178 206.5> 805 26<218 248.5>
VStem: 89 180<538 607> 269 26<544.5 607> 298 28<749.5 776>
LayerCount: 2
Back
Fore
SplineSet
146 774 m 1xf4
 131 792 l 1
 154 810 194 831 238 831 c 0
 291 831 326 804 326 766 c 0
 326 733 296 688 240 668 c 1
 277 655 295 624 295 590 c 0xec
 295 491 199 456 157 456 c 0
 119 456 70 471 62 529 c 1
 89 538 l 1
 91 500 120 482 163 482 c 0
 185 482 269 501 269 588 c 0
 269 626 240 654 173 654 c 1
 178 679 l 1
 218 680 298 699 298 762 c 0
 298 790 266 805 231 805 c 0
 205 805 177 799 146 774 c 1xf4
EndSplineSet
EndChar
StartChar: acute
Encoding: 180 180 136
Width: 490
Flags: MW
HStem: 593 21G<258 258> 710 20G<401 401>
LayerCount: 2
Back
Fore
SplineSet
238 617 m 1
 401 730 l 1
 432 698 l 1
 258 593 l 1
 238 617 l 1
EndSplineSet
EndChar
StartChar: mu
Encoding: 181 181 220
Width: 505
Flags: MW
HStem: -179 21G<45 45> -5 34<154 198> 483 20G<170 170 499 499>
LayerCount: 2
Back
Fore
SplineSet
75 294 m 0
 92 372 120 458 133 496 c 1
 170 503 l 1
 113 331 92 211 92 141 c 0
 92 45 129 29 178 29 c 0
 249 29 333 97 366 134 c 0
 375 144 386 156 392 186 c 2
 458 496 l 1
 499 503 l 1
 395 10 l 1
 349 3 l 1
 370 101 l 1
 303 37 237 -5 159 -5 c 0
 149 -5 84 1 73 53 c 1
 45 -179 l 1
 10 -172 l 1
 16 -111 47 160 75 294 c 0
EndSplineSet
EndChar
StartChar: paragraph
Encoding: 182 182 106
Width: 549
Flags: MW
HStem: -82 21G<288 288> 775 20G<477 477>
LayerCount: 2
Back
Fore
SplineSet
456 756 m 1
 448 688 390 366 208 -78 c 1
 172 -81 l 1
 237 77 289 234 329 363 c 1
 242 363 115 376 115 493 c 0
 115 671 322 766 477 795 c 1
 476 761 l 2
 475 761 456 756 456 756 c 1
537 744 m 1
 573 748 l 1
 565 685 504 361 326 -78 c 1
 288 -82 l 1
 466 350 524 681 537 744 c 1
EndSplineSet
EndChar
StartChar: periodcentered
Encoding: 183 183 221
Width: 490
Flags: MW
HStem: 217 21G<211 211> 270 20G<287 287>
LayerCount: 2
Back
Fore
SplineSet
287 290 m 1
 266 225 l 1
 211 217 l 1
 230 281 l 1
 287 290 l 1
EndSplineSet
EndChar
StartChar: cedilla
Encoding: 184 184 140
Width: 490
Flags: MW
HStem: -209 23<134.5 164 134.5 166.5> -64 23<165.5 168 168 185.5> 0 20G<169 169>
VStem: 220 24<-132 -98.5>
LayerCount: 2
Back
Fore
SplineSet
169 20 m 1
 154 -41 l 1
 168 -41 l 2
 214 -41 244 -66 244 -106 c 0
 244 -161 193 -209 140 -209 c 0
 116 -209 96 -200 83 -184 c 1
 104 -168 l 1
 113 -177 124 -186 145 -186 c 0
 183 -186 220 -152 220 -112 c 0
 220 -85 200 -64 171 -64 c 0
 160 -64 147 -68 138 -72 c 1
 121 -52 l 1
 160 15 l 1
 169 20 l 1
EndSplineSet
EndChar
StartChar: onesuperior
Encoding: 185 185 219
Width: 169
Flags: MW
HStem: 473 27<61 136 71 136 163 207> 837 20G<244 244>
LayerCount: 2
Back
Fore
SplineSet
61 473 m 1
 71 500 l 1
 136 500 l 1
 203 796 l 1
 126 738 l 1
 114 759 l 1
 244 857 l 1
 163 500 l 1
 219 500 l 1
 207 473 l 1
 61 473 l 1
EndSplineSet
EndChar
StartChar: ordmasculine
Encoding: 186 186 222
Width: 275
Flags: MW
HStem: 371 27<137 192.5 137 197> 660 28<199.5 256>
VStem: 52 34<458.5 529.5 458.5 535> 306 34<524.5 592.5>
LayerCount: 2
Back
Fore
SplineSet
154 371 m 0
 89 371 52 419 52 481 c 0
 52 589 152 688 241 688 c 0
 302 688 340 639 340 576 c 0
 340 470 240 371 154 371 c 0
232 660 m 0
 167 660 86 575 86 484 c 0
 86 433 114 398 160 398 c 0
 225 398 306 481 306 568 c 0
 306 617 280 660 232 660 c 0
EndSplineSet
EndChar
StartChar: guillemotright
Encoding: 187 187 88
Width: 599
Flags: MW
HStem: 73 21G<84 84 295 295> 415 20G<142 142 356 356>
LayerCount: 2
Back
Fore
SplineSet
295 73 m 1
 279 99 l 1
 478 252 l 1
 328 410 l 1
 356 435 l 1
 532 251 l 1
 295 73 l 1
84 73 m 1
 65 99 l 1
 265 252 l 1
 114 410 l 1
 142 435 l 1
 319 251 l 1
 84 73 l 1
EndSplineSet
EndChar
StartChar: questiondown
Encoding: 191 191 115
Width: 491
Flags: MW
HStem: 0 36<116 216> 700 20G<416 416>
VStem: -16 36<130.5 157>
LayerCount: 2
Back
Fore
SplineSet
357 649 m 1
 377 713 l 1
 416 720 l 1
 396 656 l 1
 357 649 l 1
354 521 m 1
 168 381 l 2
 103 332 20 267 20 164 c 0
 20 97 59 36 173 36 c 0
 262 36 331 101 357 130 c 1
 377 106 l 1
 343 70 266 0 166 0 c 0
 53 0 -16 62 -16 157 c 0
 -17 284 85 359 155 411 c 2
 344 552 l 1
 354 521 l 1
EndSplineSet
EndChar
StartChar: Agrave
Encoding: 192 192 226
Width: 613
Flags: MW
HStem: 4 21G<32 32> 884 20G<423 423>
LayerCount: 2
Back
Fore
SplineSet
510 770 m 1
 477 750 l 1
 376 879 l 1
 423 904 l 1
 510 770 l 1
444 679 m 1
 519 29 l 1
 484 7 l 1
 453 271 l 1
 153 211 l 1
 32 4 l 1
 3 22 l 1
 107 201 l 1
 57 191 l 1
 57 227 l 1
 133 241 l 1
 382 668 l 1
 444 679 l 1
178 251 m 1
 448 304 l 1
 409 646 l 1
 178 251 l 1
EndSplineSet
EndChar
StartChar: Aacute
Encoding: 193 193 149
Width: 613
Flags: MW
HStem: 4 21G<32 32> 876 20G<513 513>
LayerCount: 2
Back
Fore
SplineSet
351 784 m 1
 513 896 l 1
 543 864 l 1
 370 760 l 1
 351 784 l 1
444 679 m 1
 519 29 l 1
 484 7 l 1
 453 271 l 1
 153 211 l 1
 32 4 l 1
 3 22 l 1
 107 201 l 1
 57 191 l 1
 57 227 l 1
 133 241 l 1
 382 668 l 1
 444 679 l 1
178 251 m 1
 448 304 l 1
 409 646 l 1
 178 251 l 1
EndSplineSet
EndChar
StartChar: Acircumflex
Encoding: 194 194 150
Width: 613
Flags: MW
HStem: 4 21G<32 32> 864 20G<467 467>
LayerCount: 2
Back
Fore
SplineSet
319 743 m 1
 303 771 l 1
 467 884 l 1
 562 771 l 1
 534 745 l 1
 454 833 l 1
 319 743 l 1
444 679 m 1
 519 29 l 1
 484 7 l 1
 453 271 l 1
 153 211 l 1
 32 4 l 1
 3 22 l 1
 107 201 l 1
 57 191 l 1
 57 227 l 1
 133 241 l 1
 382 668 l 1
 444 679 l 1
178 251 m 1
 448 304 l 1
 409 646 l 1
 178 251 l 1
EndSplineSet
EndChar
StartChar: Atilde
Encoding: 195 195 227
Width: 613
Flags: MW
HStem: 4 21G<32 32> 743 31<489.5 515> 844 32<358 385>
LayerCount: 2
Back
Fore
SplineSet
444 679 m 1
 519 29 l 1
 484 7 l 1
 453 271 l 1
 153 211 l 1
 32 4 l 1
 3 22 l 1
 107 201 l 1
 57 191 l 1
 57 227 l 1
 133 241 l 1
 382 668 l 1
 444 679 l 1
178 251 m 1
 448 304 l 1
 409 646 l 1
 178 251 l 1
452 820 m 0
 470 781 479 774 500 774 c 0
 538 774 572 821 590 855 c 1
 619 845 l 1
 590 789 537 743 493 743 c 0
 452 743 436 774 423 801 c 0
 405 838 395 844 375 844 c 0
 341 844 306 802 289 771 c 1
 262 781 l 1
 287 825 330 876 382 876 c 0
 424 876 439 845 452 820 c 0
EndSplineSet
EndChar
StartChar: Adieresis
Encoding: 196 196 152
Width: 613
Flags: MW
HStem: 4 21G<32 32> 802 20G<399 399 565 565>
LayerCount: 2
Back
Fore
SplineSet
444 679 m 1
 519 29 l 1
 484 7 l 1
 453 271 l 1
 153 211 l 1
 32 4 l 1
 3 22 l 1
 107 201 l 1
 57 191 l 1
 57 227 l 1
 133 241 l 1
 382 668 l 1
 444 679 l 1
178 251 m 1
 448 304 l 1
 409 646 l 1
 178 251 l 1
399 822 m 1
 379 758 l 1
 323 750 l 1
 343 814 l 1
 399 822 l 1
565 822 m 1
 544 758 l 1
 489 750 l 1
 509 814 l 1
 565 822 l 1
EndSplineSet
EndChar
StartChar: Aring
Encoding: 197 197 228
Width: 613
Flags: MW
HStem: 4 21G<32 32> 743 24<400.5 444> 923 25<448.5 491>
VStem: 326 25<806.5 852.5> 540 27<838 881>
LayerCount: 2
Back
Fore
SplineSet
414 743 m 0
 359 743 326 776 326 819 c 0
 326 886 400 948 478 948 c 0
 536 948 567 911 567 870 c 0
 567 790 474 743 414 743 c 0
470 923 m 0
 427 923 351 884 351 823 c 0
 351 790 379 767 422 767 c 0
 475 767 540 812 540 864 c 0
 540 898 512 923 470 923 c 0
444 679 m 1
 519 29 l 1
 484 7 l 1
 453 271 l 1
 153 211 l 1
 32 4 l 1
 3 22 l 1
 107 201 l 1
 57 191 l 1
 57 227 l 1
 133 241 l 1
 382 668 l 1
 444 679 l 1
178 251 m 1
 448 304 l 1
 409 646 l 1
 178 251 l 1
EndSplineSet
EndChar
StartChar: AE
Encoding: 198 198 229
Width: 1039
Flags: MW
HStem: 0 37<505 923> 336 37<577 950 569 969> 644 37<634 1062 634 634>
LayerCount: 2
Back
Fore
SplineSet
505 37 m 1
 945 37 l 1
 923 0 l 1
 461 0 l 1
 528 318 l 1
 272 268 l 1
 30 3 l 1
 3 21 l 1
 222 260 l 1
 163 246 l 1
 163 280 l 1
 260 300 l 1
 610 681 l 1
 1078 681 l 1
 1062 644 l 1
 634 644 l 1
 577 373 l 1
 969 373 l 1
 950 336 l 1
 569 336 l 1
 505 37 l 1
536 354 m 1
 590 611 l 1
 312 310 l 1
 536 354 l 1
EndSplineSet
EndChar
StartChar: Ccedilla
Encoding: 199 199 155
Width: 621
Flags: MW
HStem: -207 23<240 269 240 272> -63 23<270.5 273 273 290.5> -1 34<255 255 267 319.5> 647 34<338 463 334 466.5>
VStem: 52 35<177.5 301 177.5 306> 322 26<-130 -96.5>
LayerCount: 2
Back
Fore
SplineSet
250 -184 m 0
 288 -184 322 -150 322 -110 c 0
 322 -83 305 -63 276 -63 c 0
 265 -63 252 -67 243 -71 c 1
 226 -52 l 1
 255 -1 l 1
 134 13 52 105 52 228 c 0
 52 384 232 681 436 681 c 0
 490 681 543 661 585 623 c 1
 592 657 l 1
 619 657 l 1
 597 555 l 1
 570 555 l 1
 575 575 l 1
 553 609 510 647 423 647 c 0
 253 647 87 367 87 235 c 0
 87 120 167 33 286 33 c 0
 385 33 456 68 528 147 c 1
 546 124 l 1
 479 47 372 -1 267 -1 c 1
 259 -40 l 1
 273 -40 l 2
 318 -40 348 -65 348 -105 c 0
 348 -159 298 -207 246 -207 c 0
 222 -207 201 -198 190 -182 c 1
 209 -166 l 1
 219 -175 230 -184 250 -184 c 0
EndSplineSet
EndChar
StartChar: Egrave
Encoding: 200 200 230
Width: 601
Flags: MW
HStem: 0 37<57 475> 336 37<129 502 121 521> 644 37<186 614 186 186> 884 20G<381 381>
LayerCount: 2
Back
Fore
SplineSet
468 770 m 1
 434 750 l 1
 334 879 l 1
 381 904 l 1
 468 770 l 1
57 37 m 1
 497 37 l 1
 475 0 l 1
 13 0 l 1
 157 681 l 1
 630 681 l 1
 614 644 l 1
 186 644 l 1
 129 373 l 1
 521 373 l 1
 502 336 l 1
 121 336 l 1
 57 37 l 1
EndSplineSet
EndChar
StartChar: Eacute
Encoding: 201 201 157
Width: 601
Flags: MW
HStem: 0 37<57 475> 336 37<129 502 121 521> 644 37<186 614 186 186> 876 20G<484 484>
LayerCount: 2
Back
Fore
SplineSet
322 784 m 1
 484 896 l 1
 515 864 l 1
 343 760 l 1
 322 784 l 1
57 37 m 1
 497 37 l 1
 475 0 l 1
 13 0 l 1
 157 681 l 1
 630 681 l 1
 614 644 l 1
 186 644 l 1
 129 373 l 1
 521 373 l 1
 502 336 l 1
 121 336 l 1
 57 37 l 1
EndSplineSet
EndChar
StartChar: Ecircumflex
Encoding: 202 202 231
Width: 601
Flags: MW
HStem: 0 37<57 475> 336 37<129 502 121 521> 644 37<186 614 186 186> 864 20G<449 449>
LayerCount: 2
Back
Fore
SplineSet
300 743 m 1
 285 771 l 1
 449 884 l 1
 543 771 l 1
 516 745 l 1
 436 833 l 1
 300 743 l 1
57 37 m 1
 497 37 l 1
 475 0 l 1
 13 0 l 1
 157 681 l 1
 630 681 l 1
 614 644 l 1
 186 644 l 1
 129 373 l 1
 521 373 l 1
 502 336 l 1
 121 336 l 1
 57 37 l 1
EndSplineSet
EndChar
StartChar: Edieresis
Encoding: 203 203 159
Width: 601
Flags: MW
HStem: 0 37<57 475> 336 37<129 502 121 521> 644 37<186 614 186 186> 802 20G<377 377 543 543>
LayerCount: 2
Back
Fore
SplineSet
377 822 m 1
 357 758 l 1
 301 750 l 1
 322 814 l 1
 377 822 l 1
543 822 m 1
 523 758 l 1
 467 750 l 1
 488 814 l 1
 543 822 l 1
57 37 m 1
 497 37 l 1
 475 0 l 1
 13 0 l 1
 157 681 l 1
 630 681 l 1
 614 644 l 1
 186 644 l 1
 129 373 l 1
 521 373 l 1
 502 336 l 1
 121 336 l 1
 57 37 l 1
EndSplineSet
EndChar
StartChar: Igrave
Encoding: 204 204 232
Width: 427
Flags: MW
HStem: 0 37<25 153 190 306 11 153> 644 37<162 282 147 457 319 442 319 319> 884 20G<309 309>
LayerCount: 2
Back
Fore
SplineSet
396 770 m 1
 363 750 l 1
 262 879 l 1
 309 904 l 1
 396 770 l 1
442 644 m 1
 319 644 l 1
 190 37 l 1
 320 37 l 1
 306 0 l 1
 11 0 l 1
 25 37 l 1
 153 37 l 1
 282 644 l 1
 147 644 l 1
 162 681 l 1
 457 681 l 1
 442 644 l 1
EndSplineSet
EndChar
StartChar: Iacute
Encoding: 205 205 161
Width: 427
Flags: MW
HStem: 0 37<25 153 190 306 11 153> 644 37<162 282 147 457 319 442 319 319> 876 20G<409 409>
LayerCount: 2
Back
Fore
SplineSet
247 784 m 1
 409 896 l 1
 440 864 l 1
 268 760 l 1
 247 784 l 1
442 644 m 1
 319 644 l 1
 190 37 l 1
 320 37 l 1
 306 0 l 1
 11 0 l 1
 25 37 l 1
 153 37 l 1
 282 644 l 1
 147 644 l 1
 162 681 l 1
 457 681 l 1
 442 644 l 1
EndSplineSet
EndChar
StartChar: Icircumflex
Encoding: 206 206 162
Width: 427
Flags: MW
HStem: 0 37<25 153 190 306 11 153> 644 37<162 282 147 457 319 442 319 319> 864 20G<362 362>
LayerCount: 2
Back
Fore
SplineSet
213 743 m 1
 198 771 l 1
 362 884 l 1
 456 771 l 1
 429 745 l 1
 349 833 l 1
 213 743 l 1
442 644 m 1
 319 644 l 1
 190 37 l 1
 320 37 l 1
 306 0 l 1
 11 0 l 1
 25 37 l 1
 153 37 l 1
 282 644 l 1
 147 644 l 1
 162 681 l 1
 457 681 l 1
 442 644 l 1
EndSplineSet
EndChar
StartChar: Idieresis
Encoding: 207 207 233
Width: 427
Flags: MW
HStem: 0 37<25 153 190 306 11 153> 644 37<162 282 147 457 319 442 319 319> 802 20G<290 290 456 456>
LayerCount: 2
Back
Fore
SplineSet
290 822 m 1
 270 758 l 1
 214 750 l 1
 234 814 l 1
 290 822 l 1
456 822 m 1
 436 758 l 1
 380 750 l 1
 400 814 l 1
 456 822 l 1
442 644 m 1
 319 644 l 1
 190 37 l 1
 320 37 l 1
 306 0 l 1
 11 0 l 1
 25 37 l 1
 153 37 l 1
 282 644 l 1
 147 644 l 1
 162 681 l 1
 457 681 l 1
 442 644 l 1
EndSplineSet
EndChar
StartChar: Eth
Encoding: 208 208 234
Width: 666
Flags: MW
HStem: -15 35<194 243 194 333.5> 300 40<54 138 38 147 182 277 54 173> 646 34<219 247>
VStem: 598 35<312.5 432>
LayerCount: 2
Back
Fore
SplineSet
147 340 m 1
 219 680 l 1
 523 678 633 554 633 391 c 0
 633 142 460 -15 207 -15 c 0
 173 -15 113 -10 74 -1 c 1
 138 300 l 1
 38 300 l 1
 54 340 l 1
 147 340 l 1
173 300 m 1
 115 27 l 1
 136 23 173 20 215 20 c 0
 271 20 357 29 431 70 c 0
 528 125 598 241 598 384 c 0
 598 480 554 550 468 595 c 0
 391 635 294 645 247 646 c 1
 182 340 l 1
 293 340 l 1
 277 300 l 1
 173 300 l 1
EndSplineSet
EndChar
StartChar: Ntilde
Encoding: 209 209 235
Width: 605
Flags: MW
HStem: 1 21G<440 440> 743 31<479.5 505> 844 32<348 375>
LayerCount: 2
Back
Fore
SplineSet
600 672 m 1
 636 679 l 1
 494 12 l 1
 440 1 l 1
 182 631 l 1
 50 11 l 1
 14 3 l 1
 154 666 l 1
 203 680 l 1
 467 45 l 1
 600 672 l 1
442 820 m 0
 460 781 469 774 490 774 c 0
 528 774 562 821 580 855 c 1
 609 845 l 1
 580 789 527 743 483 743 c 0
 442 743 426 774 413 801 c 0
 395 838 385 844 365 844 c 0
 331 844 296 802 279 771 c 1
 252 781 l 1
 277 825 320 876 372 876 c 0
 414 876 429 845 442 820 c 0
EndSplineSet
EndChar
StartChar: Ograve
Encoding: 210 210 236
Width: 650
Flags: MW
HStem: -2 33<208.5 332.5 208.5 339> 649 33<358 483> 884 20G<440 440>
VStem: 64 34<175 344.5 175 347> 594 36<334.5 495.5>
LayerCount: 2
Back
Fore
SplineSet
528 770 m 1
 494 750 l 1
 393 879 l 1
 440 904 l 1
 528 770 l 1
252 -2 m 0
 133 -2 64 98 64 229 c 0
 64 465 267 682 441 682 c 0
 559 682 630 584 630 452 c 0
 630 217 426 -2 252 -2 c 0
430 649 m 0
 286 649 98 456 98 233 c 0
 98 117 158 31 259 31 c 0
 406 31 594 227 594 438 c 0
 594 553 536 649 430 649 c 0
EndSplineSet
EndChar
StartChar: Oacute
Encoding: 211 211 167
Width: 650
Flags: MW
HStem: -2 33<208.5 332.5 208.5 339> 649 33<358 483> 876 20G<549 549>
VStem: 64 34<175 344.5 175 347> 594 36<334.5 495.5>
LayerCount: 2
Back
Fore
SplineSet
387 784 m 1
 549 896 l 1
 581 864 l 1
 408 760 l 1
 387 784 l 1
252 -2 m 0
 133 -2 64 98 64 229 c 0
 64 465 267 682 441 682 c 0
 559 682 630 584 630 452 c 0
 630 217 426 -2 252 -2 c 0
430 649 m 0
 286 649 98 456 98 233 c 0
 98 117 158 31 259 31 c 0
 406 31 594 227 594 438 c 0
 594 553 536 649 430 649 c 0
EndSplineSet
EndChar
StartChar: Ocircumflex
Encoding: 212 212 168
Width: 650
Flags: MW
HStem: -2 33<208.5 332.5 208.5 339> 649 33<358 483> 864 20G<501 501>
VStem: 64 34<175 344.5 175 347> 594 36<334.5 495.5>
LayerCount: 2
Back
Fore
SplineSet
352 743 m 1
 336 771 l 1
 501 884 l 1
 596 771 l 1
 568 745 l 1
 488 833 l 1
 352 743 l 1
252 -2 m 0
 133 -2 64 98 64 229 c 0
 64 465 267 682 441 682 c 0
 559 682 630 584 630 452 c 0
 630 217 426 -2 252 -2 c 0
430 649 m 0
 286 649 98 456 98 233 c 0
 98 117 158 31 259 31 c 0
 406 31 594 227 594 438 c 0
 594 553 536 649 430 649 c 0
EndSplineSet
EndChar
StartChar: Otilde
Encoding: 213 213 237
Width: 650
Flags: MW
HStem: -2 33<208.5 332.5 208.5 339> 649 33<358 483> 743 31<519.5 545> 844 32<388 415>
VStem: 64 34<175 344.5 175 347> 594 36<334.5 495.5>
LayerCount: 2
Back
Fore
SplineSet
252 -2 m 0
 133 -2 64 98 64 229 c 0
 64 465 267 682 441 682 c 0
 559 682 630 584 630 452 c 0
 630 217 426 -2 252 -2 c 0
430 649 m 0
 286 649 98 456 98 233 c 0
 98 117 158 31 259 31 c 0
 406 31 594 227 594 438 c 0
 594 553 536 649 430 649 c 0
482 820 m 0
 500 781 509 774 530 774 c 0
 568 774 602 821 620 855 c 1
 649 845 l 1
 620 789 567 743 523 743 c 0
 482 743 466 774 453 801 c 0
 435 838 425 844 405 844 c 0
 371 844 336 802 319 771 c 1
 292 781 l 1
 317 825 360 876 412 876 c 0
 454 876 469 845 482 820 c 0
EndSplineSet
EndChar
StartChar: Odieresis
Encoding: 214 214 170
Width: 650
Flags: MW
HStem: -2 33<208.5 332.5 208.5 339> 649 33<358 483> 802 20G<420 420 585 585>
VStem: 64 34<175 344.5 175 347> 594 36<334.5 495.5>
LayerCount: 2
Back
Fore
SplineSet
420 822 m 1
 400 758 l 1
 344 750 l 1
 365 814 l 1
 420 822 l 1
585 822 m 1
 565 758 l 1
 509 750 l 1
 529 814 l 1
 585 822 l 1
252 -2 m 0
 133 -2 64 98 64 229 c 0
 64 465 267 682 441 682 c 0
 559 682 630 584 630 452 c 0
 630 217 426 -2 252 -2 c 0
430 649 m 0
 286 649 98 456 98 233 c 0
 98 117 158 31 259 31 c 0
 406 31 594 227 594 438 c 0
 594 553 536 649 430 649 c 0
EndSplineSet
EndChar
StartChar: multiply
Encoding: 215 215 171
Width: 344
Flags: MW
HStem: 139 21G<60 60> 346 20G<287 287>
LayerCount: 2
Back
Fore
SplineSet
199 253 m 1
 268 165 l 1
 238 141 l 1
 170 228 l 1
 60 139 l 1
 41 162 l 1
 151 253 l 1
 87 334 l 1
 116 358 l 1
 180 277 l 1
 287 366 l 1
 306 342 l 1
 199 253 l 1
EndSplineSet
EndChar
StartChar: Oslash
Encoding: 216 216 238
Width: 650
Flags: MW
HStem: -31 21G<58 58> -1 33<237 340.5> 650 33<355 443.5> 718 20G<610 610>
VStem: 64 34<209 343.5 209 350.5> 595 36<372.5 475>
LayerCount: 2
Back
Fore
SplineSet
636 721 m 1
 568 633 l 1
 612 590 631 527 631 459 c 0
 631 221 429 -1 252 -1 c 0
 206 -1 161 19 123 53 c 1
 58 -31 l 1
 34 -13 l 1
 103 77 l 1
 77 119 64 171 64 228 c 0
 64 473 265 683 442 683 c 0
 477 683 512 673 545 651 c 1
 610 738 l 1
 636 721 l 1
127 107 m 1
 520 620 l 1
 491 640 460 650 427 650 c 0
 283 650 98 455 98 232 c 0
 98 186 108 143 127 107 c 1
259 32 m 0
 458 32 595 299 595 446 c 0
 595 504 580 561 543 600 c 1
 145 82 l 1
 177 49 215 32 259 32 c 0
EndSplineSet
EndChar
StartChar: Ugrave
Encoding: 217 217 239
Width: 674
Flags: MW
HStem: 0 30<225 403 225 414.5> 884 20G<446 446>
VStem: 79 37<171.5 285.5>
LayerCount: 2
Back
Fore
SplineSet
534 770 m 1
 500 750 l 1
 399 879 l 1
 446 904 l 1
 534 770 l 1
287 0 m 0
 130 0 79 88 79 225 c 0
 79 346 130 565 157 671 c 1
 196 678 l 1
 179 613 116 363 116 230 c 0
 116 113 157 30 293 30 c 0
 513 30 577 253 616 434 c 0
 633 513 655 624 664 670 c 1
 704 678 l 1
 699 653 679 556 663 480 c 0
 613 247 542 0 287 0 c 0
EndSplineSet
EndChar
StartChar: Ucircumflex
Encoding: 219 219 240
Width: 674
Flags: MW
HStem: 0 30<225 403 225 414.5> 864 20G<489 489>
VStem: 79 37<171.5 285.5>
LayerCount: 2
Back
Fore
SplineSet
341 744 m 1
 324 771 l 1
 489 884 l 1
 583 771 l 1
 555 745 l 1
 478 833 l 1
 341 744 l 1
287 0 m 0
 130 0 79 88 79 225 c 0
 79 346 130 565 157 671 c 1
 196 678 l 1
 179 613 116 363 116 230 c 0
 116 113 157 30 293 30 c 0
 513 30 577 253 616 434 c 0
 633 513 655 624 664 670 c 1
 704 678 l 1
 699 653 679 556 663 480 c 0
 613 247 542 0 287 0 c 0
EndSplineSet
EndChar
StartChar: Udieresis
Encoding: 220 220 176
Width: 674
Flags: MW
HStem: 0 30<225 403 225 414.5> 802 20G<420 420 585 585>
VStem: 79 37<171.5 285.5>
LayerCount: 2
Back
Fore
SplineSet
420 822 m 1
 400 758 l 1
 344 750 l 1
 364 814 l 1
 420 822 l 1
585 822 m 1
 565 758 l 1
 509 750 l 1
 529 814 l 1
 585 822 l 1
287 0 m 0
 130 0 79 88 79 225 c 0
 79 346 130 565 157 671 c 1
 196 678 l 1
 179 613 116 363 116 230 c 0
 116 113 157 30 293 30 c 0
 513 30 577 253 616 434 c 0
 633 513 655 624 664 670 c 1
 704 678 l 1
 699 653 679 556 663 480 c 0
 613 247 542 0 287 0 c 0
EndSplineSet
EndChar
StartChar: Thorn
Encoding: 222 222 241
Width: 496
Flags: MW
HStem: 3 21G<13 13> 146 41<78 87> 535 38<170 235.5 170 251> 663 20G<194 194>
VStem: 462 38<340 455.5>
LayerCount: 2
Back
Fore
SplineSet
156 676 m 1
 194 683 l 1
 170 573 l 1
 301 573 500 559 500 416 c 0
 500 210 233 156 78 146 c 1
 49 10 l 1
 13 3 l 1
 156 676 l 1
162 535 m 1
 87 187 l 1
 293 193 462 272 462 408 c 0
 462 503 340 535 162 535 c 1
EndSplineSet
EndChar
StartChar: germandbls
Encoding: 223 223 179
Width: 515
Flags: MW
HStem: -25 33<230 290 230 296> 612 34<284 349.5>
VStem: 420 34<496 540.5> 440 37<152.5 238>
LayerCount: 2
Back
Fore
SplineSet
363 362 m 1xe0
 436 342 477 283 477 214 c 0
 477 91 357 -25 235 -25 c 0
 205 -25 179 -19 139 4 c 1
 161 33 l 1
 193 15 218 8 242 8 c 0
 338 8 440 101 440 204 c 0xd0
 440 272 396 333 314 333 c 0
 293 333 277 331 248 325 c 1
 266 359 l 1
 378 379 420 453 420 512 c 0
 420 569 380 612 319 612 c 0
 249 612 181 555 166 486 c 2
 67 23 l 1
 24 -6 l 1
 129 486 l 2
 148 574 238 646 326 646 c 0
 401 646 454 592 454 520 c 0
 454 472 424 402 363 362 c 1xe0
EndSplineSet
EndChar
StartChar: agrave
Encoding: 224 224 242
Width: 494
Flags: MW
HStem: 2 21G<344 344> 7 37<190 211.5> 477 36<254.5 357.5> 716 20G<315 315>
VStem: 37 40<138.5 203 138.5 236.5>
LayerCount: 2
Back
Fore
SplineSet
404 602 m 1x78
 369 582 l 1
 267 713 l 1
 315 736 l 1
 404 602 l 1x78
482 475 m 1
 384 10 l 1
 344 2 l 1xb8
 357 65 l 1
 310 39 239 7 184 7 c 0
 94 7 37 69 37 164 c 0
 37 309 166 513 343 513 c 0
 396 513 442 497 482 475 c 1
190 44 m 0x78
 255 44 336 91 365 109 c 1
 442 450 l 1
 420 459 375 477 340 477 c 0
 147 477 77 235 77 171 c 0
 77 106 106 45 190 44 c 0x78
EndSplineSet
EndChar
StartChar: aacute
Encoding: 225 225 181
Width: 494
Flags: MW
HStem: 2 21G<344 344> 7 37<190 211.5> 477 36<254.5 357.5> 710 20G<421 421>
VStem: 37 40<138.5 203 138.5 236.5>
LayerCount: 2
Back
Fore
SplineSet
258 617 m 1x78
 421 730 l 1
 452 698 l 1
 278 593 l 1
 258 617 l 1x78
482 475 m 1
 384 10 l 1
 344 2 l 1xb8
 357 65 l 1
 310 39 239 7 184 7 c 0
 94 7 37 69 37 164 c 0
 37 309 166 513 343 513 c 0
 396 513 442 497 482 475 c 1
190 44 m 0x78
 255 44 336 91 365 109 c 1
 442 450 l 1
 420 459 375 477 340 477 c 0
 147 477 77 235 77 171 c 0
 77 106 106 45 190 44 c 0x78
EndSplineSet
EndChar
StartChar: acircumflex
Encoding: 226 226 182
Width: 494
Flags: MW
HStem: 2 21G<344 344> 7 37<190 211.5> 477 36<254.5 357.5> 698 20G<391 391>
VStem: 37 40<138.5 203 138.5 236.5>
LayerCount: 2
Back
Fore
SplineSet
240 575 m 1x78
 224 603 l 1
 391 718 l 1
 487 603 l 1
 458 577 l 1
 377 667 l 1
 240 575 l 1x78
482 475 m 1
 384 10 l 1
 344 2 l 1xb8
 357 65 l 1
 310 39 239 7 184 7 c 0
 94 7 37 69 37 164 c 0
 37 309 166 513 343 513 c 0
 396 513 442 497 482 475 c 1
190 44 m 0x78
 255 44 336 91 365 109 c 1
 442 450 l 1
 420 459 375 477 340 477 c 0
 147 477 77 235 77 171 c 0
 77 106 106 45 190 44 c 0x78
EndSplineSet
EndChar
StartChar: atilde
Encoding: 227 227 243
Width: 503
Flags: MW
HStem: 2 21G<344 344> 7 37<190 211.5> 477 36<254.5 357.5> 579 31<401.5 428> 680 32<270 297>
VStem: 37 40<138.5 203 138.5 236.5>
LayerCount: 2
Back
Fore
SplineSet
364 656 m 0x7c
 382 617 391 610 412 610 c 0
 450 610 484 657 502 691 c 1
 531 681 l 1
 502 625 450 579 406 579 c 0
 365 579 348 610 335 637 c 0
 317 674 307 680 287 680 c 0
 253 680 218 638 202 607 c 1
 174 617 l 1
 199 661 242 712 294 712 c 0
 336 712 351 681 364 656 c 0x7c
482 475 m 1
 384 10 l 1
 344 2 l 1xbc
 357 65 l 1
 310 39 239 7 184 7 c 0
 94 7 37 69 37 164 c 0
 37 309 166 513 343 513 c 0
 396 513 442 497 482 475 c 1
190 44 m 0x7c
 255 44 336 91 365 109 c 1
 442 450 l 1
 420 459 375 477 340 477 c 0
 147 477 77 235 77 171 c 0
 77 106 106 45 190 44 c 0x7c
EndSplineSet
EndChar
StartChar: aring
Encoding: 229 229 244
Width: 494
Flags: MW
HStem: 2 21G<344 344> 7 37<190 211.5> 477 36<254.5 357.5> 587 24<320 365> 767 25<370 412>
VStem: 37 40<138.5 203 138.5 236.5> 246 26<651 696.5> 461 27<682 725>
LayerCount: 2
Back
Fore
SplineSet
335 587 m 0x7f
 280 587 246 620 246 663 c 0
 246 730 322 792 399 792 c 0
 457 792 488 755 488 714 c 0
 488 634 395 587 335 587 c 0x7f
391 767 m 0
 349 767 272 728 272 668 c 0
 272 634 298 611 342 611 c 0
 395 611 461 656 461 708 c 0
 461 742 433 767 391 767 c 0
482 475 m 1
 384 10 l 1
 344 2 l 1xbf
 357 65 l 1
 310 39 239 7 184 7 c 0
 94 7 37 69 37 164 c 0
 37 309 166 513 343 513 c 0
 396 513 442 497 482 475 c 1
190 44 m 0x7f
 255 44 336 91 365 109 c 1
 442 450 l 1
 420 459 375 477 340 477 c 0
 147 477 77 235 77 171 c 0
 77 106 106 45 190 44 c 0x7f
EndSplineSet
EndChar
StartChar: ae
Encoding: 230 230 245
Width: 854
Flags: MW
HStem: 0 21G<542.5 616> 7 25 7 37<190 211.5> 477 25 493 20G<255.5 369.5>
VStem: 37 40<138.5 203 138.5 236.5>
LayerCount: 2
Back
Fore
SplineSet
586 0 m 0x94
 499 0 433 46 406 117 c 1
 384 10 l 1
 344 2 l 1
 357 65 l 1
 310 39 239 7 184 7 c 0
 94 7 37 69 37 164 c 0
 37 309 168 513 343 513 c 0x2c
 396 513 442 497 482 475 c 1
 463 385 l 1
 520 455 605 502 692 502 c 0
 776 502 833 441 842 365 c 1
 429 159 l 1
 450 83 511 32 592 32 c 0x54
 644 32 699 54 746 91 c 1
 764 68 l 1
 709 25 646 0 586 0 c 0x94
190 44 m 0x34
 255 44 336 91 365 109 c 1
 442 450 l 1
 420 459 375 477 340 477 c 0
 147 477 77 235 77 171 c 0
 77 106 106 45 190 44 c 0x34
687 470 m 0
 552 470 427 339 427 206 c 2
 427 190 l 1
 805 379 l 1
 785 436 740 470 687 470 c 0
EndSplineSet
EndChar
StartChar: ccedilla
Encoding: 231 231 187
Width: 497
Flags: MW
HStem: -209 23<164.5 194 164.5 196.5> -64 23<195.5 198 198 215.5> 0 33<206 224 194 230> 469 33<252 345>
VStem: 38 35<127 213 111 223.5> 250 24<-132 -98.5>
LayerCount: 2
Back
Fore
SplineSet
230 33 m 0
 294 36 356 67 396 115 c 1
 416 90 l 1
 367 35 298 3 224 0 c 2
 194 0 l 1
 184 -41 l 1
 198 -41 l 2
 244 -41 274 -66 274 -106 c 0
 274 -161 223 -209 170 -209 c 0
 146 -209 126 -200 113 -184 c 1
 134 -168 l 1
 143 -177 154 -186 175 -186 c 0
 213 -186 250 -152 250 -112 c 0
 250 -85 230 -64 201 -64 c 0
 190 -64 177 -68 168 -72 c 1
 151 -52 l 1
 182 2 l 1
 98 15 38 83 38 171 c 0
 38 276 168 502 326 502 c 0
 384 502 432 478 458 438 c 1
 426 413 l 1
 407 450 369 469 321 469 c 0
 183 469 73 257 73 169 c 0
 73 53 182 33 230 33 c 0
EndSplineSet
EndChar
StartChar: egrave
Encoding: 232 232 246
Width: 517
Flags: MW
HStem: 0 32<204.5 269> 470 32<270.5 364.5> 717 20G<322 322>
VStem: 44 34<190 206 190 276>
LayerCount: 2
Back
Fore
SplineSet
410 602 m 1
 376 582 l 1
 275 712 l 1
 322 737 l 1
 410 602 l 1
239 0 m 0
 123 0 44 83 44 196 c 0
 44 356 193 502 345 502 c 0
 429 502 486 441 495 365 c 1
 82 159 l 1
 103 83 164 32 245 32 c 0
 297 32 352 54 399 91 c 1
 417 68 l 1
 362 25 299 0 239 0 c 0
338 470 m 0
 203 470 78 339 78 206 c 2
 78 190 l 1
 456 379 l 1
 436 436 391 470 338 470 c 0
EndSplineSet
EndChar
StartChar: ecircumflex
Encoding: 234 234 247
Width: 517
Flags: MW
HStem: 0 32<204.5 269> 470 32<270.5 364.5> 698 20G<373 373>
VStem: 44 34<190 206 190 276>
LayerCount: 2
Back
Fore
SplineSet
223 575 m 1
 207 603 l 1
 373 718 l 1
 469 603 l 1
 440 577 l 1
 359 667 l 1
 223 575 l 1
239 0 m 0
 123 0 44 83 44 196 c 0
 44 356 193 502 345 502 c 0
 429 502 486 441 495 365 c 1
 82 159 l 1
 103 83 164 32 245 32 c 0
 297 32 352 54 399 91 c 1
 417 68 l 1
 362 25 299 0 239 0 c 0
338 470 m 0
 203 470 78 339 78 206 c 2
 78 190 l 1
 456 379 l 1
 436 436 391 470 338 470 c 0
EndSplineSet
EndChar
StartChar: edieresis
Encoding: 235 235 191
Width: 517
Flags: MW
HStem: 0 32<204.5 269> 470 32<270.5 364.5> 649 20G<315 315 482 482>
VStem: 44 34<190 206 190 276>
LayerCount: 2
Back
Fore
SplineSet
315 669 m 1
 294 604 l 1
 238 596 l 1
 258 660 l 1
 315 669 l 1
482 669 m 1
 460 604 l 1
 404 596 l 1
 425 660 l 1
 482 669 l 1
239 0 m 0
 123 0 44 83 44 196 c 0
 44 356 193 502 345 502 c 0
 429 502 486 441 495 365 c 1
 82 159 l 1
 103 83 164 32 245 32 c 0
 297 32 352 54 399 91 c 1
 417 68 l 1
 362 25 299 0 239 0 c 0
338 470 m 0
 203 470 78 339 78 206 c 2
 78 190 l 1
 456 379 l 1
 436 436 391 470 338 470 c 0
EndSplineSet
EndChar
StartChar: igrave
Encoding: 236 236 248
Width: 207
Flags: MW
HStem: 2 21G<29 29> 717 20G<154 154>
LayerCount: 2
Back
Fore
SplineSet
243 602 m 1
 209 582 l 1
 108 712 l 1
 154 737 l 1
 243 602 l 1
133 493 m 1
 174 498 l 1
 70 9 l 1
 29 2 l 1
 133 493 l 1
EndSplineSet
EndChar
StartChar: iacute
Encoding: 237 237 193
Width: 195
Flags: MW
HStem: 2 21G<16 16> 710 20G<274 274>
LayerCount: 2
Back
Fore
SplineSet
110 617 m 1
 274 730 l 1
 304 698 l 1
 130 593 l 1
 110 617 l 1
120 493 m 1
 161 498 l 1
 57 9 l 1
 16 2 l 1
 120 493 l 1
EndSplineSet
EndChar
StartChar: icircumflex
Encoding: 238 238 194
Width: 236
Flags: MW
HStem: 2 21G<50 50> 698 20G<239 239>
LayerCount: 2
Back
Fore
SplineSet
89 575 m 1
 74 603 l 1
 239 718 l 1
 335 603 l 1
 306 577 l 1
 225 667 l 1
 89 575 l 1
154 493 m 1
 195 498 l 1
 91 9 l 1
 50 2 l 1
 154 493 l 1
EndSplineSet
EndChar
StartChar: idieresis
Encoding: 239 239 249
Width: 236
Flags: MW
HStem: 2 21G<44 44> 649 20G<167 167 333 333>
LayerCount: 2
Back
Fore
SplineSet
167 669 m 1
 145 604 l 1
 89 596 l 1
 110 660 l 1
 167 669 l 1
333 669 m 1
 312 604 l 1
 256 596 l 1
 276 660 l 1
 333 669 l 1
148 493 m 1
 190 498 l 1
 86 9 l 1
 44 2 l 1
 148 493 l 1
EndSplineSet
EndChar
StartChar: eth
Encoding: 240 240 250
Width: 472
Flags: MW
HStem: 0 32<133.5 235.5 133.5 238.5> 401 32<312.5 382 293.5 391> 658 20G<459 459>
VStem: 28 34<103 222> 402 33<257 331.5>
LayerCount: 2
Back
Fore
SplineSet
332 599 m 1
 384 526 435 425 435 319 c 0
 435 174 318 0 159 0 c 0
 81 0 28 52 28 132 c 0
 28 312 205 433 382 433 c 1
 359 494 327 544 300 583 c 1
 246 556 188 524 163 509 c 1
 156 528 l 1
 194 550 251 579 288 599 c 1
 271 620 258 635 248 647 c 1
 273 672 l 1
 321 614 l 1
 366 636 421 663 459 678 c 1
 462 659 l 1
 428 646 367 619 332 599 c 1
165 32 m 0
 306 32 402 196 402 318 c 0
 402 345 398 373 391 401 c 1
 234 401 62 313 62 135 c 0
 62 71 102 32 165 32 c 0
EndSplineSet
EndChar
StartChar: ntilde
Encoding: 241 241 251
Width: 526
Flags: MW
HStem: 2 21G<13 13> 467 34<343 395> 579 31<423.5 450> 680 32<292 319>
VStem: 444 37
LayerCount: 2
Back
Fore
SplineSet
156 500 m 1
 109 282 l 1
 155 383 268 501 378 501 c 0
 443 501 477 465 481 397 c 1
 480 333 465 244 437 109 c 2
 416 10 l 1
 378 3 l 1
 408 144 l 2
 428 240 444 323 444 377 c 0
 444 441 422 467 368 467 c 0
 318 467 257 445 176 337 c 0
 127 272 92 202 76 126 c 2
 51 10 l 1
 13 2 l 1
 117 493 l 1
 156 500 l 1
386 656 m 0
 404 617 413 610 434 610 c 0
 472 610 506 657 524 691 c 1
 553 681 l 1
 524 625 472 579 428 579 c 0
 387 579 370 610 357 637 c 0
 339 674 329 680 309 680 c 0
 275 680 240 638 224 607 c 1
 196 617 l 1
 221 661 264 712 316 712 c 0
 358 712 373 681 386 656 c 0
EndSplineSet
EndChar
StartChar: ograve
Encoding: 242 242 252
Width: 525
Flags: MW
HStem: 0 32<164.5 260.5 164.5 265.5> 467 33<265.5 362> 717 20G<340 340>
VStem: 40 39<135.5 251 135.5 261.5> 452 40<242.5 358>
LayerCount: 2
Back
Fore
SplineSet
429 602 m 1
 395 582 l 1
 294 712 l 1
 340 737 l 1
 429 602 l 1
197 0 m 0
 100 0 40 76 40 176 c 0
 40 347 191 500 335 500 c 0
 431 500 492 424 492 325 c 0
 492 154 334 0 197 0 c 0
323 467 m 0
 208 467 79 325 79 177 c 0
 79 94 124 32 205 32 c 0
 316 32 452 170 452 315 c 0
 452 401 401 467 323 467 c 0
EndSplineSet
EndChar
StartChar: ocircumflex
Encoding: 244 244 200
Width: 525
Flags: MW
HStem: 0 32<164.5 260.5 164.5 265.5> 467 33<265.5 362> 698 20G<398 398>
VStem: 40 39<135.5 251 135.5 261.5> 452 40<242.5 358>
LayerCount: 2
Back
Fore
SplineSet
248 575 m 1
 232 603 l 1
 398 718 l 1
 494 603 l 1
 465 577 l 1
 384 667 l 1
 248 575 l 1
197 0 m 0
 100 0 40 76 40 176 c 0
 40 347 191 500 335 500 c 0
 431 500 492 424 492 325 c 0
 492 154 334 0 197 0 c 0
323 467 m 0
 208 467 79 325 79 177 c 0
 79 94 124 32 205 32 c 0
 316 32 452 170 452 315 c 0
 452 401 401 467 323 467 c 0
EndSplineSet
EndChar
StartChar: otilde
Encoding: 245 245 253
Width: 525
Flags: MW
HStem: 0 32<164.5 260.5 164.5 265.5> 467 33<265.5 362> 579 31<423.5 450> 680 32<292 319>
VStem: 40 39<135.5 251 135.5 261.5> 452 40<242.5 358>
LayerCount: 2
Back
Fore
SplineSet
197 0 m 0
 100 0 40 76 40 176 c 0
 40 347 191 500 335 500 c 0
 431 500 492 424 492 325 c 0
 492 154 334 0 197 0 c 0
323 467 m 0
 208 467 79 325 79 177 c 0
 79 94 124 32 205 32 c 0
 316 32 452 170 452 315 c 0
 452 401 401 467 323 467 c 0
386 656 m 0
 404 617 413 610 434 610 c 0
 472 610 506 657 524 691 c 1
 553 681 l 1
 524 625 472 579 428 579 c 0
 387 579 370 610 357 637 c 0
 339 674 329 680 309 680 c 0
 275 680 240 638 224 607 c 1
 196 617 l 1
 221 661 264 712 316 712 c 0
 358 712 373 681 386 656 c 0
EndSplineSet
EndChar
StartChar: odieresis
Encoding: 246 246 202
Width: 525
Flags: MW
HStem: 0 32<164.5 260.5 164.5 265.5> 467 33<265.5 362> 649 20G<331 331 497 497>
VStem: 40 39<135.5 251 135.5 261.5> 452 40<242.5 358>
LayerCount: 2
Back
Fore
SplineSet
331 669 m 1
 309 604 l 1
 253 596 l 1
 273 660 l 1
 331 669 l 1
497 669 m 1
 476 604 l 1
 420 596 l 1
 440 660 l 1
 497 669 l 1
197 0 m 0
 100 0 40 76 40 176 c 0
 40 347 191 500 335 500 c 0
 431 500 492 424 492 325 c 0
 492 154 334 0 197 0 c 0
323 467 m 0
 208 467 79 325 79 177 c 0
 79 94 124 32 205 32 c 0
 316 32 452 170 452 315 c 0
 452 401 401 467 323 467 c 0
EndSplineSet
EndChar
StartChar: divide
Encoding: 247 247 203
Width: 397
Flags: MW
HStem: 139 21G<146 146> 244 33<56 349 70 335> 362 20G<256 256>
LayerCount: 2
Back
Fore
SplineSet
256 382 m 1
 243 337 l 1
 203 331 l 1
 217 376 l 1
 256 382 l 1
200 191 m 1
 187 145 l 1
 146 139 l 1
 162 184 l 1
 200 191 l 1
56 244 m 1
 70 277 l 1
 349 277 l 1
 335 244 l 1
 56 244 l 1
EndSplineSet
EndChar
StartChar: oslash
Encoding: 248 248 254
Width: 525
Flags: MW
HStem: -32 21G<51 51> 0 32<188.5 265.5> 467 33<265.5 336.5> 523 20G<473 473>
VStem: 40 39<158.5 251 158.5 261> 452 40<252 337>
LayerCount: 2
Back
Fore
SplineSet
197 0 m 0
 159 0 127 12 101 32 c 1
 51 -32 l 1
 28 -16 l 1
 81 51 l 1
 54 82 40 126 40 175 c 0
 40 347 190 500 335 500 c 0
 367 500 396 491 420 476 c 1
 473 543 l 1
 496 526 l 1
 442 457 l 1
 474 425 492 379 492 325 c 0
 492 154 334 0 197 0 c 0
205 32 m 0
 333 32 452 189 452 315 c 0
 452 359 439 398 416 425 c 1
 124 61 l 1
 146 43 172 32 205 32 c 0
323 467 m 0
 208 467 79 325 79 177 c 0
 79 140 88 107 105 82 c 1
 394 444 l 1
 374 458 350 467 323 467 c 0
EndSplineSet
EndChar
StartChar: uacute
Encoding: 250 250 206
Width: 506
Flags: MW
HStem: -6 32<136 197.5> 710 20G<438 438>
VStem: 49 35<94.5 142>
LayerCount: 2
Back
Fore
SplineSet
274 617 m 1
 438 730 l 1
 468 698 l 1
 294 593 l 1
 274 617 l 1
110 291 m 0
 98 231 84 171 84 123 c 0
 84 66 104 26 168 26 c 0
 244 26 336 97 365 123 c 0
 375 132 385 149 391 175 c 2
 460 495 l 1
 500 502 l 1
 395 9 l 1
 350 2 l 1
 369 90 l 1
 321 47 235 -6 160 -6 c 0
 74 -6 49 45 49 116 c 0
 49 168 62 230 75 291 c 0
 84 335 108 425 134 495 c 1
 171 502 l 1
 158 465 127 368 110 291 c 0
EndSplineSet
EndChar
StartChar: ucircumflex
Encoding: 251 251 256
Width: 506
Flags: MW
HStem: -6 32<136 197.5> 698 20G<382 382>
VStem: 49 35<94.5 142>
LayerCount: 2
Back
Fore
SplineSet
232 575 m 1
 216 603 l 1
 382 718 l 1
 478 603 l 1
 449 577 l 1
 368 667 l 1
 232 575 l 1
110 291 m 0
 98 231 84 171 84 123 c 0
 84 66 104 26 168 26 c 0
 244 26 336 97 365 123 c 0
 375 132 385 149 391 175 c 2
 460 495 l 1
 500 502 l 1
 395 9 l 1
 350 2 l 1
 369 90 l 1
 321 47 235 -6 160 -6 c 0
 74 -6 49 45 49 116 c 0
 49 168 62 230 75 291 c 0
 84 335 108 425 134 495 c 1
 171 502 l 1
 158 465 127 368 110 291 c 0
EndSplineSet
EndChar
StartChar: udieresis
Encoding: 252 252 208
Width: 506
Flags: MW
HStem: -6 32<136 197.5> 649 20G<308 308 476 476>
VStem: 49 35<94.5 142>
LayerCount: 2
Back
Fore
SplineSet
308 669 m 1
 287 604 l 1
 230 596 l 1
 251 660 l 1
 308 669 l 1
476 669 m 1
 454 604 l 1
 398 596 l 1
 418 660 l 1
 476 669 l 1
110 291 m 0
 98 231 84 171 84 123 c 0
 84 66 104 26 168 26 c 0
 244 26 336 97 365 123 c 0
 375 132 385 149 391 175 c 2
 460 495 l 1
 500 502 l 1
 395 9 l 1
 350 2 l 1
 369 90 l 1
 321 47 235 -6 160 -6 c 0
 74 -6 49 45 49 116 c 0
 49 168 62 230 75 291 c 0
 84 335 108 425 134 495 c 1
 171 502 l 1
 158 465 127 368 110 291 c 0
EndSplineSet
EndChar
StartChar: yacute
Encoding: 253 253 209
Width: 490
Flags: MW
HStem: -203 21G<61 61> 710 20G<413 413>
LayerCount: 2
Back
Fore
SplineSet
249 617 m 1
 413 730 l 1
 444 698 l 1
 270 593 l 1
 249 617 l 1
492 496 m 1
 522 479 l 1
 61 -203 l 1
 30 -186 l 1
 193 52 l 1
 70 478 l 1
 109 495 l 1
 221 97 l 1
 492 496 l 1
EndSplineSet
EndChar
StartChar: thorn
Encoding: 254 254 258
Width: 518
Flags: MW
HStem: -191 21G<9 9> 0 35<177.5 274.5 172 296.5> 451 37<313 387.5> 677 20G<198 198>
VStem: 448 38<265 359>
LayerCount: 2
Back
Fore
SplineSet
353 488 m 0
 453 488 486 419 486 340 c 0
 486 190 389 0 204 0 c 0
 151 0 93 19 57 34 c 1
 9 -191 l 1
 -27 -183 l 1
 158 688 l 1
 198 697 l 1
 130 381 l 1
 185 440 273 488 353 488 c 0
203 35 m 0
 346 35 448 171 448 329 c 0
 448 389 426 451 349 451 c 0
 231 451 125 360 109 282 c 2
 65 73 l 1
 85 62 141 35 203 35 c 0
EndSplineSet
EndChar
StartChar: ydieresis
Encoding: 255 255 257
Width: 490
Flags: MW
HStem: -202 21G<62 62> 649 20G<291 291 458 458>
LayerCount: 2
Back
Fore
SplineSet
291 669 m 1
 270 604 l 1
 214 596 l 1
 234 660 l 1
 291 669 l 1
458 669 m 1
 437 604 l 1
 381 596 l 1
 401 660 l 1
 458 669 l 1
492 497 m 1
 523 480 l 1
 62 -202 l 1
 30 -185 l 1
 193 53 l 1
 70 479 l 1
 109 496 l 1
 221 98 l 1
 492 497 l 1
EndSplineSet
EndChar
StartChar: Abreve
Encoding: 258 258 151
Width: 613
Flags: MW
HStem: 4 21G<32 32> 761 27<425.5 470.5> 842 20G<582 582>
LayerCount: 2
Back
Fore
SplineSet
444 679 m 1
 519 29 l 1
 484 7 l 1
 453 271 l 1
 153 211 l 1
 32 4 l 1
 3 22 l 1
 107 201 l 1
 57 191 l 1
 57 227 l 1
 133 241 l 1
 382 668 l 1
 444 679 l 1
178 251 m 1
 448 304 l 1
 409 646 l 1
 178 251 l 1
445 788 m 0
 498 788 551 813 582 862 c 1
 596 845 l 1
 565 796 500 761 441 761 c 0
 375 761 328 793 313 841 c 1
 333 858 l 1
 359 800 406 788 445 788 c 0
EndSplineSet
EndChar
StartChar: abreve
Encoding: 259 259 183
Width: 494
Flags: MW
HStem: 2 21G<344 344> 7 37<190 211.5> 477 36<259 357.5> 582 27<338.5 383.5> 663 20G<495 495>
VStem: 37 40<138.5 203 138.5 236.5>
LayerCount: 2
Back
Fore
SplineSet
482 475 m 1x7c
 384 10 l 1
 344 2 l 1xbc
 357 65 l 1
 310 39 239 7 184 7 c 0
 94 7 37 69 37 164 c 0
 37 309 175 513 343 513 c 0
 396 513 442 497 482 475 c 1x7c
190 44 m 0x7c
 255 44 336 91 365 109 c 1
 442 450 l 1
 420 459 375 477 340 477 c 0
 147 477 77 235 77 171 c 0
 77 106 106 45 190 44 c 0x7c
358 609 m 0
 411 609 464 634 495 683 c 1
 509 666 l 1
 478 617 413 582 354 582 c 0
 288 582 241 614 226 662 c 1
 246 679 l 1
 271 621 319 609 358 609 c 0
EndSplineSet
EndChar
StartChar: Aogonek
Encoding: 260 260 116
Width: 627
Flags: MW
HStem: -209 32<425.5 453.5> 659 20G<444 444>
VStem: 354 31<-142.5 -127 -142.5 -99>
LayerCount: 2
Back
Fore
SplineSet
482 22 m 1
 453 271 l 1
 153 211 l 1
 32 4 l 1
 3 22 l 1
 107 201 l 1
 57 191 l 1
 57 227 l 1
 133 241 l 1
 382 668 l 1
 444 679 l 1
 520 14 l 1
 474 -15 l 2
 441 -36 386 -71 385 -127 c 0
 385 -158 409 -177 442 -177 c 0
 477 -177 495 -166 523 -149 c 1
 535 -172 l 1
 513 -191 472 -209 435 -209 c 0
 386 -209 354 -179 354 -134 c 0
 354 -64 427 -5 482 22 c 1
178 251 m 1
 448 304 l 1
 409 646 l 1
 178 251 l 1
EndSplineSet
EndChar
StartChar: aogonek
Encoding: 261 261 133
Width: 500
Flags: MW
HStem: -209 32<294.5 322.5> 7 37<190 211.5> 477 36<259 357.5>
VStem: 37 40<138.5 203 138.5 236.5> 223 31<-142.5 -99.5>
LayerCount: 2
Back
Fore
SplineSet
384 10 m 1
 343 -15 l 2
 312 -35 254 -70 254 -127 c 0
 254 -158 278 -177 311 -177 c 0
 346 -177 364 -166 392 -149 c 1
 404 -172 l 1
 382 -191 341 -209 304 -209 c 0
 255 -209 223 -179 223 -134 c 0
 223 -65 293 -7 348 20 c 1
 357 65 l 1
 310 39 239 7 184 7 c 0
 94 7 37 69 37 164 c 0
 37 309 175 513 343 513 c 0
 396 513 442 497 482 475 c 1
 384 10 l 1
190 44 m 0
 255 44 336 91 365 109 c 1
 442 450 l 1
 420 459 375 477 340 477 c 0
 147 477 77 235 77 171 c 0
 77 106 106 45 190 44 c 0
EndSplineSet
EndChar
StartChar: ccaron
Encoding: 269 269 188
Width: 497
Flags: MW
HStem: 0 33<206 230 206 252> 469 33<252 345> 698 20G<498 498>
VStem: 38 35<122.5 213 111 224.5>
LayerCount: 2
Back
Fore
SplineSet
498 718 m 1
 514 687 l 1
 348 575 l 1
 253 688 l 1
 283 717 l 1
 362 625 l 1
 498 718 l 1
230 33 m 0
 294 36 356 67 396 115 c 1
 416 90 l 1
 365 32 291 0 213 0 c 0
 114 0 38 73 38 172 c 0
 38 277 168 502 326 502 c 0
 384 502 432 478 458 438 c 1
 426 413 l 1
 407 450 369 469 321 469 c 0
 183 469 73 257 73 169 c 0
 73 53 182 33 230 33 c 0
EndSplineSet
EndChar
StartChar: Dcaron
Encoding: 270 270 163
Width: 606
Flags: MW
HStem: -15 35<132 181 132 271.5> 646 34<157 185> 864 20G<516 516>
VStem: 536 35<312.5 432>
LayerCount: 2
Back
Fore
SplineSet
516 884 m 1
 532 854 l 1
 367 743 l 1
 273 855 l 1
 303 883 l 1
 381 792 l 1
 516 884 l 1
12 -1 m 1
 157 680 l 1
 461 678 571 554 571 391 c 0
 571 139 398 -15 145 -15 c 0
 111 -15 51 -10 12 -1 c 1
185 646 m 1
 53 27 l 1
 74 23 111 20 153 20 c 0
 209 20 295 29 369 70 c 0
 466 125 536 241 536 384 c 0
 536 480 492 550 406 595 c 0
 329 635 232 645 185 646 c 1
EndSplineSet
EndChar
StartChar: dcaron
Encoding: 271 271 195
Width: 599
Flags: MW
HStem: 2 21G<350 350> 6 30<134 205> 460 35<237.5 338.5> 683 20G<553 553>
VStem: 38 37<126.5 196 126.5 251>
LayerCount: 2
Back
Fore
SplineSet
668 696 m 1x78
 720 666 l 1
 600 510 l 1
 572 529 l 1
 649 629 l 1
 617 651 l 1
 668 696 l 1x78
513 696 m 1
 553 703 l 1
 389 9 l 1
 350 2 l 1xb8
 372 97 l 1
 317 45 244 6 166 6 c 0
 75 6 38 76 38 158 c 0
 38 344 157 495 318 495 c 0
 374 495 422 475 458 457 c 1
 513 696 l 1
387 158 m 2
 448 417 l 1
 429 428 370 460 307 460 c 0
 124 460 75 235 75 157 c 0
 75 96 96 36 172 36 c 0x78
 283 36 379 123 387 158 c 2
EndSplineSet
EndChar
StartChar: dcroat
Encoding: 273 273 196
Width: 540
Flags: MW
HStem: 2 21G<350 350> 6 30<134 205> 460 35<237.5 338.5> 576 33<398 485 384 493 531 618 398 523> 683 20G<553 553>
VStem: 38 37<126.5 196 126.5 251>
LayerCount: 2
Back
Fore
SplineSet
513 696 m 1x7c
 553 703 l 1
 531 609 l 1
 632 609 l 1
 618 576 l 1
 523 576 l 1
 389 9 l 1
 350 2 l 1xbc
 372 97 l 1
 317 45 244 6 166 6 c 0
 75 6 38 76 38 158 c 0
 38 344 157 495 318 495 c 0
 374 495 422 475 458 457 c 1
 485 576 l 1
 384 576 l 1
 398 609 l 1
 493 609 l 1
 513 696 l 1x7c
387 158 m 2
 448 417 l 1
 429 428 370 460 307 460 c 0
 124 460 75 235 75 157 c 0
 75 96 96 36 172 36 c 0x7c
 283 36 379 123 387 158 c 2
EndSplineSet
EndChar
StartChar: Eogonek
Encoding: 280 280 158
Width: 601
Flags: MW
HStem: -209 32<354.5 382.5> 0 37<57 374 428 428 428 475> 336 37<129 502 121 521> 644 37<186 614 186 186>
VStem: 283 31<-142.5 -127 -142.5 -106>
LayerCount: 2
Back
Fore
SplineSet
452 -149 m 1
 464 -172 l 1
 442 -191 401 -209 364 -209 c 0
 315 -209 283 -179 283 -134 c 0
 283 -78 327 -32 374 0 c 1
 13 0 l 1
 157 681 l 1
 630 681 l 1
 614 644 l 1
 186 644 l 1
 129 373 l 1
 521 373 l 1
 502 336 l 1
 121 336 l 1
 57 37 l 1
 497 37 l 1
 475 0 l 1
 428 0 l 1
 403 -15 l 2
 371 -34 315 -71 314 -127 c 0
 314 -158 338 -177 371 -177 c 0
 406 -177 424 -166 452 -149 c 1
EndSplineSet
EndChar
StartChar: eogonek
Encoding: 281 281 190
Width: 517
Flags: MW
HStem: -209 32<206.5 234.5> 0 32 470 32<270.5 364.5>
VStem: 44 34<190 206 190 276> 135 31<-142.5 -106>
LayerCount: 2
Back
Fore
SplineSet
304 -149 m 1
 316 -172 l 1
 294 -191 253 -209 216 -209 c 0
 167 -209 135 -179 135 -134 c 0
 135 -78 180 -32 227 0 c 1
 117 5 44 87 44 196 c 0
 44 356 192 502 345 502 c 0
 429 502 486 441 495 365 c 1
 82 159 l 1
 103 83 164 32 245 32 c 0
 297 32 352 54 399 91 c 1
 417 68 l 1
 384 42 360 31 328 18 c 0
 252 -12 166 -59 166 -127 c 0
 166 -158 190 -177 223 -177 c 0
 258 -177 276 -166 304 -149 c 1
338 470 m 0
 203 470 78 339 78 206 c 2
 78 190 l 1
 456 379 l 1
 436 436 391 470 338 470 c 0
EndSplineSet
EndChar
StartChar: Ecaron
Encoding: 282 282 160
Width: 601
Flags: MW
HStem: 0 37<57 475> 336 37<129 502 121 521> 644 37<186 614 186 186> 864 20G<547 547>
LayerCount: 2
Back
Fore
SplineSet
547 884 m 1
 562 854 l 1
 397 743 l 1
 303 855 l 1
 333 883 l 1
 411 792 l 1
 547 884 l 1
57 37 m 1
 497 37 l 1
 475 0 l 1
 13 0 l 1
 157 681 l 1
 630 681 l 1
 614 644 l 1
 186 644 l 1
 129 373 l 1
 521 373 l 1
 502 336 l 1
 121 336 l 1
 57 37 l 1
EndSplineSet
EndChar
StartChar: ecaron
Encoding: 283 283 192
Width: 517
Flags: MW
HStem: 0 32<204.5 269> 470 32<270.5 364.5> 698 20G<494 494>
VStem: 44 34<190 206 190 276>
LayerCount: 2
Back
Fore
SplineSet
494 718 m 1
 510 687 l 1
 343 575 l 1
 247 688 l 1
 277 717 l 1
 356 625 l 1
 494 718 l 1
239 0 m 0
 123 0 44 83 44 196 c 0
 44 356 193 502 345 502 c 0
 429 502 486 441 495 365 c 1
 82 159 l 1
 103 83 164 32 245 32 c 0
 297 32 352 54 399 91 c 1
 417 68 l 1
 362 25 299 0 239 0 c 0
338 470 m 0
 203 470 78 339 78 206 c 2
 78 190 l 1
 456 379 l 1
 436 436 391 470 338 470 c 0
EndSplineSet
EndChar
StartChar: Lacute
Encoding: 313 313 153
Width: 477
Flags: MW
HStem: 1 21G<13 13> 15 38 876 20G<397 397>
LayerCount: 2
Back
Fore
SplineSet
235 784 m 1x60
 397 896 l 1
 427 864 l 1
 255 760 l 1
 235 784 l 1x60
13 1 m 1xa0
 155 669 l 1
 193 676 l 1
 58 40 l 1
 416 66 l 1
 397 30 l 1
 13 1 l 1xa0
EndSplineSet
EndChar
StartChar: lacute
Encoding: 314 314 185
Width: 216
Flags: MW
HStem: 2 21G<36 36> 886 20G<326 326>
LayerCount: 2
Back
Fore
SplineSet
163 793 m 1
 326 906 l 1
 357 874 l 1
 183 769 l 1
 163 793 l 1
182 689 m 1
 221 698 l 1
 74 9 l 1
 36 2 l 1
 182 689 l 1
EndSplineSet
EndChar
StartChar: Lcaron
Encoding: 317 317 120
Width: 522
Flags: MW
HStem: 1 21G<59 59> 15 38 864 20G<441 441>
LayerCount: 2
Back
Fore
SplineSet
59 1 m 1
 201 669 l 1
 239 676 l 1
 104 40 l 1
 462 66 l 1
 458 30 l 1
 59 1 l 1
441 884 m 1
 457 854 l 1
 292 743 l 1
 198 855 l 1
 228 883 l 1
 307 792 l 1
 441 884 l 1
EndSplineSet
EndChar
StartChar: lcaron
Encoding: 318 318 137
Width: 280
Flags: MW
HStem: 2 21G<34 34> 679 20G<340 340>
LayerCount: 2
Back
Fore
SplineSet
180 689 m 1
 220 698 l 1
 73 9 l 1
 34 2 l 1
 180 689 l 1
340 699 m 1
 391 669 l 1
 272 513 l 1
 243 532 l 1
 320 632 l 1
 288 654 l 1
 340 699 l 1
EndSplineSet
EndChar
StartChar: Lslash
Encoding: 321 321 118
Width: 539
Flags: MW
HStem: 1 21G<77 77> 15 38 656 20G<257 257>
LayerCount: 2
Back
Fore
SplineSet
475 30 m 1x60
 77 1 l 1xa0
 143 312 l 1
 72 272 l 1
 56 304 l 1
 152 357 l 1
 219 669 l 1
 257 676 l 1
 194 380 l 1
 266 420 l 1
 280 388 l 1
 185 335 l 1
 122 40 l 1
 479 66 l 1
 475 30 l 1x60
EndSplineSet
EndChar
StartChar: lslash
Encoding: 322 322 135
Width: 256
Flags: MW
HStem: 2 21G<57 57> 678 20G<243 243>
LayerCount: 2
Back
Fore
SplineSet
263 393 m 1
 166 338 l 1
 96 9 l 1
 57 2 l 1
 123 315 l 1
 53 276 l 1
 37 307 l 1
 133 361 l 1
 203 689 l 1
 243 698 l 1
 176 384 l 1
 248 425 l 1
 263 393 l 1
EndSplineSet
EndChar
StartChar: Nacute
Encoding: 323 323 165
Width: 605
Flags: MW
HStem: 1 21G<440 440> 876 20G<493 493>
LayerCount: 2
Back
Fore
SplineSet
331 784 m 1
 493 896 l 1
 524 864 l 1
 352 760 l 1
 331 784 l 1
600 672 m 1
 636 679 l 1
 494 12 l 1
 440 1 l 1
 182 631 l 1
 50 11 l 1
 14 3 l 1
 154 666 l 1
 203 680 l 1
 467 45 l 1
 600 672 l 1
EndSplineSet
EndChar
StartChar: Ncaron
Encoding: 327 327 166
Width: 605
Flags: MW
HStem: 1 21G<440 440> 864 20G<558 558>
LayerCount: 2
Back
Fore
SplineSet
558 884 m 1
 574 854 l 1
 409 743 l 1
 314 855 l 1
 344 883 l 1
 423 792 l 1
 558 884 l 1
600 672 m 1
 636 679 l 1
 494 12 l 1
 440 1 l 1
 182 631 l 1
 50 11 l 1
 14 3 l 1
 154 666 l 1
 203 680 l 1
 467 45 l 1
 600 672 l 1
EndSplineSet
EndChar
StartChar: ncaron
Encoding: 328 328 198
Width: 526
Flags: MW
HStem: 2 21G<13 13> 467 34<343 395> 698 20G<504 504>
VStem: 444 37
LayerCount: 2
Back
Fore
SplineSet
504 718 m 1
 520 687 l 1
 353 575 l 1
 257 688 l 1
 287 717 l 1
 366 625 l 1
 504 718 l 1
156 500 m 1
 109 282 l 1
 155 383 268 501 378 501 c 0
 443 501 477 465 481 397 c 1
 480 333 465 244 437 109 c 2
 416 10 l 1
 378 3 l 1
 408 144 l 2
 428 240 444 323 444 377 c 0
 444 441 422 467 368 467 c 0
 318 467 257 445 176 337 c 0
 127 272 92 202 76 126 c 2
 51 10 l 1
 13 2 l 1
 117 493 l 1
 156 500 l 1
EndSplineSet
EndChar
StartChar: Ohungarumlaut
Encoding: 336 336 169
Width: 650
Flags: MW
HStem: -2 33<208.5 332.5 208.5 339> 649 33<358 483> 876 20G<458 458 623 623>
VStem: 64 34<175 344.5 175 347> 594 36<334.5 495.5>
LayerCount: 2
Back
Fore
SplineSet
296 784 m 1
 458 896 l 1
 488 864 l 1
 315 760 l 1
 296 784 l 1
461 784 m 1
 623 896 l 1
 654 864 l 1
 480 760 l 1
 461 784 l 1
252 -2 m 0
 133 -2 64 98 64 229 c 0
 64 465 267 682 441 682 c 0
 559 682 630 584 630 452 c 0
 630 217 426 -2 252 -2 c 0
430 649 m 0
 286 649 98 456 98 233 c 0
 98 117 158 31 259 31 c 0
 406 31 594 227 594 438 c 0
 594 553 536 649 430 649 c 0
EndSplineSet
EndChar
StartChar: ohungarumlaut
Encoding: 337 337 201
Width: 545
Flags: MW
HStem: 0 32<164.5 260.5 164.5 265.5> 467 33<265.5 362> 710 20G<393 393 560 560>
VStem: 40 39<135.5 251 135.5 261.5> 452 40<242.5 358>
LayerCount: 2
Back
Fore
SplineSet
230 617 m 1
 393 730 l 1
 424 698 l 1
 250 593 l 1
 230 617 l 1
397 617 m 1
 560 730 l 1
 592 698 l 1
 418 593 l 1
 397 617 l 1
197 0 m 0
 100 0 40 76 40 176 c 0
 40 347 191 500 335 500 c 0
 431 500 492 424 492 325 c 0
 492 154 334 0 197 0 c 0
323 467 m 0
 208 467 79 325 79 177 c 0
 79 94 124 32 205 32 c 0
 316 32 452 170 452 315 c 0
 452 401 401 467 323 467 c 0
EndSplineSet
EndChar
StartChar: OE
Encoding: 338 338 223
Width: 1083
Flags: MW
HStem: 0 37<550 968> 336 37<622 995 614 1014> 644 37<679 1107 679 679> 664 20G<349 475>
VStem: 61 34<178 347 178 347.5>
LayerCount: 2
Back
Fore
SplineSet
506 0 m 1xe8
 548 202 l 1
 467 77 359 0 250 0 c 0
 131 0 61 99 61 230 c 0
 61 465 260 684 438 684 c 0xd8
 512 684 596 635 618 529 c 1
 650 681 l 1
 1122 681 l 1
 1107 644 l 1
 679 644 l 1
 622 373 l 1
 1014 373 l 1
 995 336 l 1
 614 336 l 1
 550 37 l 1
 990 37 l 1
 968 0 l 1
 506 0 l 1xe8
583 365 m 1
 606 473 574 651 424 651 c 0
 280 651 95 458 95 236 c 0
 95 120 155 33 257 33 c 0
 386 33 526 161 583 365 c 1
EndSplineSet
EndChar
StartChar: oe
Encoding: 339 339 224
Width: 901
Flags: MW
HStem: 0 32<600.5 665> 470 32<690 760.5> 480 20G<259 369>
VStem: 36 36<136 251.5 136 261.5>
LayerCount: 2
Back
Fore
SplineSet
641 32 m 0xd0
 693 32 748 54 795 91 c 1
 803 81 806 75 813 68 c 1
 758 25 695 0 635 0 c 0
 531 0 455 76 441 173 c 1
 379 70 277 0 191 0 c 0
 95 0 36 76 36 176 c 0
 36 347 187 500 331 500 c 0xb0
 407 500 467 432 481 342 c 1
 533 432 641 502 739 502 c 0
 817 502 881 441 891 365 c 1
 478 159 l 1
 499 83 560 32 641 32 c 0xd0
442 266 m 0
 456 348 429 470 319 470 c 0xd0
 204 470 72 325 72 178 c 0
 72 94 118 29 199 29 c 0
 297 29 415 141 442 266 c 0
478 251 m 0
 475 237 474 223 474 206 c 2
 474 190 l 1
 852 379 l 1
 832 436 787 470 734 470 c 0
 617 470 504 372 478 251 c 0
EndSplineSet
EndChar
StartChar: Racute
Encoding: 340 340 148
Width: 584
Flags: MW
HStem: 2 21G<13 13> 257 26 649 38<187 326> 876 20G<443 443>
VStem: 532 37<472 549.5>
LayerCount: 2
Back
Fore
SplineSet
281 784 m 1
 443 896 l 1
 474 864 l 1
 300 760 l 1
 281 784 l 1
187 649 m 1
 110 283 l 1
 356 292 532 389 532 510 c 0
 532 589 463 649 240 649 c 2
 187 649 l 1
100 242 m 1
 50 9 l 1
 13 2 l 1
 158 683 l 1
 180 685 226 687 261 687 c 0
 391 687 569 663 569 521 c 0
 569 423 478 326 314 278 c 1
 371 238 443 162 488 31 c 1
 456 6 l 1
 408 156 332 218 287 244 c 0
 272 253 243 257 220 257 c 0
 195 257 143 250 100 242 c 1
EndSplineSet
EndChar
StartChar: rcaron
Encoding: 345 345 204
Width: 392
Flags: MW
HStem: 2 21G<14 14> 466 36<304.5 347> 698 20G<443 443>
LayerCount: 2
Back
Fore
SplineSet
443 718 m 1
 458 687 l 1
 292 575 l 1
 196 688 l 1
 226 717 l 1
 305 625 l 1
 443 718 l 1
157 500 m 1
 128 366 l 1
 169 421 262 502 347 502 c 0
 384 502 410 480 410 449 c 0
 410 446 410 442 409 438 c 2
 401 404 l 1
 363 397 l 1
 368 419 l 2
 369 426 371 433 371 439 c 0
 371 455 362 466 332 466 c 0
 254 466 126 357 104 252 c 2
 52 9 l 1
 14 2 l 1
 118 493 l 1
 157 500 l 1
EndSplineSet
EndChar
StartChar: Sacute
Encoding: 346 346 121
Width: 589
Flags: MW
HStem: -1 34<216 302.5> 646 35<366 440> 876 20G<501 501>
VStem: 152 42<469 556 469 560.5> 481 40<152.5 225> 558 36<568 591>
LayerCount: 2
Back
Fore
SplineSet
339 784 m 1
 501 896 l 1
 533 864 l 1
 359 760 l 1
 339 784 l 1
411 646 m 0
 321 646 194 614 194 498 c 0
 194 440 248 406 341 378 c 0
 458 342 521 289 521 215 c 0
 521 67 354 -1 251 -1 c 0
 139 -1 57 54 41 138 c 1
 84 145 l 1
 101 67 178 33 254 33 c 0
 356 33 481 99 481 206 c 0
 481 244 457 303 326 340 c 0
 243 364 152 406 152 491 c 0
 152 630 294 681 418 681 c 0
 499 681 594 655 594 572 c 0
 594 564 593 555 591 545 c 2
 589 536 l 1
 555 527 l 1
 556 532 l 2
 557 540 558 547 558 554 c 0
 558 628 469 646 411 646 c 0
EndSplineSet
EndChar
StartChar: Scedilla
Encoding: 350 350 125
Width: 589
Flags: MW
HStem: -207 23<195 221 195 224> -62 23<225 242.5> -1 34<245.5 302.5> 0 21G<221 226> 646 35<366 440>
VStem: 152 42<469 556 469 560.5> 277 25<-129 -95.5> 481 40<152.5 225> 558 36<568 591>
LayerCount: 2
Back
Fore
SplineSet
411 646 m 0xef80
 321 646 194 614 194 498 c 0
 194 440 248 406 341 378 c 0
 458 342 521 289 521 215 c 0
 521 67 354 -1 251 -1 c 0xef80
 240 -1 231 0 221 0 c 1xdf80
 211 -39 l 1
 225 -39 l 2
 271 -39 302 -64 302 -104 c 0
 302 -159 250 -207 198 -207 c 0
 174 -207 153 -198 141 -182 c 1
 161 -166 l 1
 171 -178 188 -184 202 -184 c 0
 240 -184 277 -149 277 -109 c 0
 277 -82 257 -62 228 -62 c 0
 222 -62 206 -64 196 -70 c 1
 179 -50 l 1
 208 2 l 1
 118 14 55 65 41 138 c 1
 84 145 l 1
 101 67 178 33 254 33 c 0
 356 33 481 99 481 206 c 0
 481 244 457 303 326 340 c 0
 243 364 152 406 152 491 c 0
 152 630 294 681 418 681 c 0
 499 681 594 655 594 572 c 0
 594 564 593 555 591 545 c 2
 589 536 l 1
 555 527 l 1
 556 532 l 2
 557 540 558 547 558 554 c 0
 558 628 469 646 411 646 c 0xef80
EndSplineSet
EndChar
StartChar: scedilla
Encoding: 351 351 142
Width: 450
Flags: MW
HStem: -209 23<139 165 139 167.5> -64 23<169 186.5> 0 31<165 179 165 165> 475 30<272 323.5>
VStem: 105 37<346 394.5 346 420.5> 220 25<-132 -98> 344 39<122 188.5> 402 34<420.5 433.5>
LayerCount: 2
Back
Fore
SplineSet
432 394 m 1
 400 386 l 1
 402 395 402 402 402 408 c 0
 402 459 347 475 300 475 c 0
 190 475 142 424 142 365 c 0
 142 327 179 304 249 284 c 0
 337 258 383 225 383 168 c 0
 383 35 234 0 179 0 c 2
 165 0 l 1
 155 -41 l 1
 169 -41 l 2
 215 -41 245 -65 245 -105 c 0
 245 -160 194 -209 141 -209 c 0
 117 -209 97 -200 84 -184 c 1
 105 -168 l 1
 114 -180 132 -186 146 -186 c 0
 184 -186 220 -152 220 -112 c 0
 220 -84 201 -64 172 -64 c 0
 166 -64 149 -66 139 -72 c 1
 122 -52 l 1
 152 1 l 1
 85 8 32 43 24 107 c 1
 60 112 l 1
 71 59 126 31 185 31 c 0
 262 31 344 84 344 160 c 0
 344 217 280 233 218 254 c 0
 161 274 105 297 105 360 c 0
 105 481 237 505 307 505 c 0
 357 505 436 490 436 424 c 0
 436 417 436 410 432 394 c 1
EndSplineSet
EndChar
StartChar: scaron
Encoding: 353 353 141
Width: 450
Flags: MW
HStem: 0 31<155.5 206.5> 475 30<272 323.5> 698 20G<458 458>
VStem: 105 37<346 394.5 346 420.5> 344 39<122 196.5 101.5 214.5> 402 34<420.5 433.5>
LayerCount: 2
Back
Fore
SplineSet
458 718 m 1
 474 687 l 1
 307 575 l 1
 211 688 l 1
 241 717 l 1
 320 625 l 1
 458 718 l 1
432 394 m 1
 400 386 l 1
 402 395 402 402 402 408 c 0
 402 459 347 475 300 475 c 0
 190 475 142 424 142 365 c 0
 142 327 179 304 249 284 c 0
 337 258 383 225 383 168 c 0
 383 35 234 0 179 0 c 0
 99 0 33 35 24 107 c 1
 60 112 l 1
 71 59 126 31 185 31 c 0
 262 31 344 84 344 160 c 0
 344 269 105 230 105 360 c 0
 105 481 237 505 307 505 c 0
 357 505 436 490 436 424 c 0
 436 417 436 410 432 394 c 1
EndSplineSet
EndChar
StartChar: uni0162
Encoding: 354 354 178
Width: 512
Flags: MW
HStem: -227 21G<126 126> 644 37<100 314 92 598 352 352 352 590>
LayerCount: 2
Back
Fore
SplineSet
178 2 m 1
 314 644 l 1
 92 644 l 1
 100 681 l 1
 598 681 l 1
 590 644 l 1
 352 644 l 1
 217 9 l 1
 178 2 l 1
194 -43 m 1
 245 -73 l 1
 126 -227 l 1
 98 -208 l 1
 175 -109 l 1
 143 -88 l 1
 194 -43 l 1
EndSplineSet
EndChar
StartChar: uni0163
Encoding: 355 355 210
Width: 363
Flags: MW
HStem: -229 21G<56 56> 465 37<73 209 65 217 256 391 73 248> 656 20G<293 293>
LayerCount: 2
Back
Fore
SplineSet
399 502 m 1
 391 465 l 1
 248 465 l 1
 151 9 l 1
 111 2 l 1
 209 465 l 1
 65 465 l 1
 73 502 l 1
 217 502 l 1
 253 669 l 1
 293 676 l 1
 256 502 l 1
 399 502 l 1
124 -44 m 1
 175 -74 l 1
 56 -229 l 1
 28 -210 l 1
 105 -110 l 1
 72 -89 l 1
 124 -44 l 1
EndSplineSet
EndChar
StartChar: Tcaron
Encoding: 356 356 126
Width: 512
Flags: MW
HStem: 2 21G<178 178> 644 37<100 314 92 598 352 352 352 590> 864 20G<505 505>
LayerCount: 2
Back
Fore
SplineSet
505 884 m 1
 521 854 l 1
 357 743 l 1
 262 855 l 1
 292 883 l 1
 371 792 l 1
 505 884 l 1
178 2 m 1
 314 644 l 1
 92 644 l 1
 100 681 l 1
 598 681 l 1
 590 644 l 1
 352 644 l 1
 217 9 l 1
 178 2 l 1
EndSplineSet
EndChar
StartChar: tcaron
Encoding: 357 357 143
Width: 419
Flags: MW
HStem: 2 21G<111 111> 465 37<73 209 65 217 255 391 73 247> 724 20G<448 448>
LayerCount: 2
Back
Fore
SplineSet
448 744 m 1
 498 713 l 1
 379 558 l 1
 350 577 l 1
 428 677 l 1
 395 699 l 1
 448 744 l 1
399 502 m 1
 391 465 l 1
 247 465 l 1
 150 9 l 1
 111 2 l 1
 209 465 l 1
 65 465 l 1
 73 502 l 1
 217 502 l 1
 253 669 l 1
 292 676 l 1
 255 502 l 1
 399 502 l 1
EndSplineSet
EndChar
StartChar: Uring
Encoding: 366 366 173
Width: 674
Flags: MW
HStem: 0 30<225 403 225 414.5> 743 24<431.5 475> 923 25<479.5 522>
VStem: 79 37<171.5 285.5> 357 25<806.5 852.5> 571 27<838 881>
LayerCount: 2
Back
Fore
SplineSet
287 0 m 0
 130 0 79 88 79 225 c 0
 79 346 130 565 157 671 c 1
 196 678 l 1
 179 613 116 363 116 230 c 0
 116 113 157 30 293 30 c 0
 513 30 577 253 616 434 c 0
 633 513 655 624 664 670 c 1
 704 678 l 1
 699 653 679 556 663 480 c 0
 613 247 542 0 287 0 c 0
445 743 m 0
 390 743 357 776 357 819 c 0
 357 886 431 948 509 948 c 0
 567 948 598 911 598 870 c 0
 598 790 505 743 445 743 c 0
501 923 m 0
 458 923 382 884 382 823 c 0
 382 790 410 767 453 767 c 0
 506 767 571 812 571 864 c 0
 571 898 543 923 501 923 c 0
EndSplineSet
EndChar
StartChar: uring
Encoding: 367 367 205
Width: 505
Flags: MW
HStem: -6 32<136 197.5> 587 24<326 371> 767 25<376 418>
VStem: 49 35<94.5 142> 252 26<651 696.5> 467 27<682 725>
LayerCount: 2
Back
Fore
SplineSet
110 291 m 0
 98 231 84 171 84 123 c 0
 84 66 104 26 168 26 c 0
 244 26 336 97 365 123 c 0
 375 132 385 149 391 175 c 2
 460 495 l 1
 500 502 l 1
 395 9 l 1
 350 2 l 1
 369 90 l 1
 321 47 235 -6 160 -6 c 0
 74 -6 49 45 49 116 c 0
 49 168 62 230 75 291 c 0
 84 335 108 425 134 495 c 1
 171 502 l 1
 158 465 127 368 110 291 c 0
341 587 m 0
 286 587 252 620 252 663 c 0
 252 730 328 792 405 792 c 0
 463 792 494 755 494 714 c 0
 494 634 401 587 341 587 c 0
397 767 m 0
 355 767 278 728 278 668 c 0
 278 634 304 611 348 611 c 0
 401 611 467 656 467 708 c 0
 467 742 439 767 397 767 c 0
EndSplineSet
EndChar
StartChar: Uhungarumlaut
Encoding: 368 368 175
Width: 674
Flags: MW
HStem: 0 30<225 403 225 414.5> 876 20G<472 472 638 638>
VStem: 79 37<171.5 285.5>
LayerCount: 2
Back
Fore
SplineSet
310 784 m 1
 472 896 l 1
 503 864 l 1
 331 760 l 1
 310 784 l 1
476 784 m 1
 638 896 l 1
 668 864 l 1
 496 760 l 1
 476 784 l 1
287 0 m 0
 130 0 79 88 79 225 c 0
 79 346 130 565 157 671 c 1
 196 678 l 1
 179 613 116 363 116 230 c 0
 116 113 157 30 293 30 c 0
 513 30 577 253 616 434 c 0
 633 513 655 624 664 670 c 1
 704 678 l 1
 699 653 679 556 663 480 c 0
 613 247 542 0 287 0 c 0
EndSplineSet
EndChar
StartChar: Zacute
Encoding: 377 377 129
Width: 611
Flags: MW
HStem: 0 42<17 510 53 510 53 526> 639 42<181 598 163 636> 876 20G<526 526>
LayerCount: 2
Back
Fore
SplineSet
364 784 m 1
 526 896 l 1
 557 864 l 1
 384 760 l 1
 364 784 l 1
17 0 m 1
 6 44 l 1
 598 639 l 1
 163 639 l 1
 181 681 l 1
 636 681 l 1
 647 637 l 1
 53 42 l 1
 510 42 l 1
 526 0 l 1
 17 0 l 1
EndSplineSet
EndChar
StartChar: zacute
Encoding: 378 378 144
Width: 443
Flags: MW
HStem: 0 37<30 349 -4 363> 465 37<116 418 100 453> 710 20G<391 391>
LayerCount: 2
Back
Fore
SplineSet
349 0 m 1
 -4 0 l 1
 -15 35 l 1
 418 465 l 1
 100 465 l 1
 116 502 l 1
 453 502 l 1
 464 468 l 1
 30 37 l 1
 363 37 l 1
 349 0 l 1
227 617 m 1
 391 730 l 1
 422 698 l 1
 247 593 l 1
 227 617 l 1
EndSplineSet
EndChar
StartChar: zdotaccent
Encoding: 380 380 147
Width: 443
Flags: MW
HStem: 0 37<30 349 -4 363> 465 37<116 418 100 453> 649 20G<359 359>
LayerCount: 2
Back
Fore
SplineSet
359 669 m 1
 338 604 l 1
 281 596 l 1
 302 660 l 1
 359 669 l 1
349 0 m 1
 -4 0 l 1
 -15 35 l 1
 418 465 l 1
 100 465 l 1
 116 502 l 1
 453 502 l 1
 464 468 l 1
 30 37 l 1
 363 37 l 1
 349 0 l 1
EndSplineSet
EndChar
StartChar: Zcaron
Encoding: 381 381 131
Width: 611
Flags: MW
HStem: 0 42<17 510 53 494> 639 42<181 598 163 636> 864 20G<558 558>
LayerCount: 2
Back
Fore
SplineSet
558 884 m 1
 574 854 l 1
 410 743 l 1
 315 855 l 1
 345 883 l 1
 424 792 l 1
 558 884 l 1
17 0 m 1
 6 44 l 1
 598 639 l 1
 163 639 l 1
 181 681 l 1
 636 681 l 1
 647 637 l 1
 53 42 l 1
 510 42 l 1
 494 0 l 1
 17 0 l 1
EndSplineSet
EndChar
StartChar: zcaron
Encoding: 382 382 146
Width: 443
Flags: MW
HStem: 0 37<30 349 -4 363> 465 37<116 418 100 453> 698 20G<452 452>
LayerCount: 2
Back
Fore
SplineSet
452 718 m 1
 468 687 l 1
 302 575 l 1
 207 688 l 1
 237 717 l 1
 316 625 l 1
 452 718 l 1
349 0 m 1
 -4 0 l 1
 -15 35 l 1
 418 465 l 1
 100 465 l 1
 116 502 l 1
 453 502 l 1
 464 468 l 1
 30 37 l 1
 363 37 l 1
 349 0 l 1
EndSplineSet
EndChar
StartChar: caron
Encoding: 711 711 139
Width: 490
Flags: MW
HStem: 575 21G<306 306> 698 20G<456 456>
LayerCount: 2
Back
Fore
SplineSet
456 718 m 1
 471 687 l 1
 306 575 l 1
 210 688 l 1
 240 717 l 1
 319 625 l 1
 456 718 l 1
EndSplineSet
EndChar
StartChar: breve
Encoding: 728 728 117
Width: 490
Flags: MW
HStem: 582 27<307.5 352.5> 663 20G<464 464>
LayerCount: 2
Back
Fore
SplineSet
327 609 m 0
 380 609 433 634 464 683 c 1
 478 666 l 1
 447 617 382 582 323 582 c 0
 257 582 210 614 195 662 c 1
 215 679 l 1
 240 621 288 609 327 609 c 0
EndSplineSet
EndChar
StartChar: dotaccent
Encoding: 729 729 211
Width: 490
Flags: MW
HStem: 571 21G<286 286> 624 20G<362 362>
LayerCount: 2
Back
Fore
SplineSet
362 644 m 1
 342 579 l 1
 286 571 l 1
 305 635 l 1
 362 644 l 1
EndSplineSet
EndChar
StartChar: ogonek
Encoding: 731 731 134
Width: 490
Flags: MW
HStem: -209 32<225.5 253.5> 7 20G<293 293>
VStem: 154 31<-142.5 -127 -142.5 -99>
LayerCount: 2
Back
Fore
SplineSet
323 -149 m 1
 335 -172 l 1
 313 -191 272 -209 235 -209 c 0
 186 -209 154 -179 154 -134 c 0
 154 -64 226 -6 281 21 c 2
 293 27 l 1
 307 5 l 1
 274 -15 l 2
 242 -34 186 -71 185 -127 c 0
 185 -158 209 -177 242 -177 c 0
 277 -177 295 -166 323 -149 c 1
EndSplineSet
EndChar
StartChar: hungarumlaut
Encoding: 733 733 145
Width: 490
Flags: MW
HStem: 593 21G<173 173 341 341> 710 20G<317 317 484 484>
LayerCount: 2
Back
Fore
SplineSet
153 617 m 1
 317 730 l 1
 347 698 l 1
 173 593 l 1
 153 617 l 1
320 617 m 1
 484 730 l 1
 515 698 l 1
 341 593 l 1
 320 617 l 1
EndSplineSet
EndChar
StartChar: endash
Encoding: 8211 8211 92
Width: 586
Flags: MW
HStem: 231 36<84 511 69 526>
LayerCount: 2
Back
Fore
SplineSet
511 231 m 1
 69 231 l 1
 84 267 l 1
 526 267 l 1
 511 231 l 1
EndSplineSet
EndChar
StartChar: emdash
Encoding: 8212 8212 73
Width: 867
Flags: MW
HStem: 231 38<82 802 66 817>
LayerCount: 2
Back
Fore
SplineSet
802 231 m 1
 66 231 l 1
 82 269 l 1
 817 269 l 1
 802 231 l 1
EndSplineSet
EndChar
StartChar: quoteleft
Encoding: 8216 8216 84
Width: 172
Flags: MW
HStem: 570 21G<152 152> 735 20G<220 220>
LayerCount: 2
Back
Fore
SplineSet
152 570 m 1
 101 600 l 1
 220 755 l 1
 248 736 l 1
 171 636 l 1
 204 614 l 1
 152 570 l 1
EndSplineSet
EndChar
StartChar: quoteright
Encoding: 8217 8217 67
Width: 172
Flags: MW
HStem: 571 21G<127 127> 736 20G<195 195>
LayerCount: 2
Back
Fore
SplineSet
195 756 m 1
 246 726 l 1
 127 571 l 1
 99 589 l 1
 176 689 l 1
 143 711 l 1
 195 756 l 1
EndSplineSet
EndChar
StartChar: quotedblleft
Encoding: 8220 8220 91
Width: 338
Flags: MW
HStem: 570 21G<150 150 323 323> 735 20G<218 218 391 391>
LayerCount: 2
Back
Fore
SplineSet
323 570 m 1
 272 600 l 1
 391 755 l 1
 419 736 l 1
 342 636 l 1
 375 614 l 1
 323 570 l 1
150 570 m 1
 99 600 l 1
 218 755 l 1
 247 736 l 1
 169 636 l 1
 202 614 l 1
 150 570 l 1
EndSplineSet
EndChar
StartChar: quotedblright
Encoding: 8221 8221 66
Width: 338
Flags: MW
HStem: 571 21G<125 125 298 298> 736 20G<193 193 366 366>
LayerCount: 2
Back
Fore
SplineSet
193 756 m 1
 245 726 l 1
 125 571 l 1
 97 589 l 1
 174 689 l 1
 142 711 l 1
 193 756 l 1
366 756 m 1
 417 726 l 1
 298 571 l 1
 270 589 l 1
 347 689 l 1
 314 711 l 1
 366 756 l 1
EndSplineSet
EndChar
StartChar: bullet
Encoding: 8226 8226 78
Width: 368
Flags: MW
HStem: 171 164<180 192.5>
LayerCount: 2
Back
Fore
SplineSet
268 253 m 0
 259 208 215 171 170 171 c 0
 130 171 103 199 103 237 c 0
 103 289 155 335 205 335 c 0
 251 335 275 296 268 253 c 0
EndSplineSet
EndChar
StartChar: ellipsis
Encoding: 8230 8230 69
Width: 724
Flags: MW
HStem: 1 21G<17 17 283 283 550 550> 54 20G<93 93 360 360 626 626>
LayerCount: 2
Back
Fore
SplineSet
93 74 m 1
 72 9 l 1
 17 1 l 1
 37 66 l 1
 93 74 l 1
360 74 m 1
 339 9 l 1
 283 1 l 1
 304 66 l 1
 360 74 l 1
626 74 m 1
 605 9 l 1
 550 1 l 1
 570 66 l 1
 626 74 l 1
EndSplineSet
EndChar
StartChar: guilsinglleft
Encoding: 8249 8249 110
Width: 394
Flags: MW
HStem: 71 21G<239 239> 413 20G<333 333>
LayerCount: 2
Back
Fore
SplineSet
239 71 m 1
 78 249 l 1
 333 433 l 1
 351 407 l 1
 132 249 l 1
 267 98 l 1
 239 71 l 1
EndSplineSet
EndChar
StartChar: guilsinglright
Encoding: 8250 8250 64
Width: 394
Flags: MW
HStem: 73 21G<86 86> 415 20G<144 144>
LayerCount: 2
Back
Fore
SplineSet
86 73 m 1
 67 99 l 1
 267 252 l 1
 117 410 l 1
 144 435 l 1
 321 251 l 1
 86 73 l 1
EndSplineSet
EndChar
StartChar: Euro
Encoding: 8364 8364 75
Width: 653
Flags: MW
HStem: 0 35<320 403> 272 38<81 147 66 155 81 182 188 417> 401 39<109 187 94 207 109 222 243 467> 663 36<469.5 551.5>
VStem: 144 36<193 241>
LayerCount: 2
Back
Fore
SplineSet
374 0 m 0
 243 0 144 105 144 235 c 0
 144 247 145 259 147 272 c 1
 66 272 l 1
 81 310 l 1
 155 310 l 1
 166 346 176 376 187 401 c 1
 94 401 l 1
 109 440 l 1
 207 440 l 1
 245 514 384 699 534 699 c 0
 596 699 645 681 679 646 c 1
 649 622 l 1
 623 645 582 663 521 663 c 0
 418 663 294 528 243 440 c 1
 482 440 l 1
 467 401 l 1
 222 401 l 1
 208 370 198 340 188 310 c 1
 434 310 l 1
 417 272 l 1
 182 272 l 1
 181 263 180 255 180 247 c 0
 180 139 266 35 374 35 c 0
 435 35 483 48 522 69 c 1
 542 44 l 1
 491 15 432 0 374 0 c 0
EndSplineSet
EndChar
StartChar: trademark
Encoding: 8482 8482 97
Width: 549
Flags: MW
HStem: 480 21G<469 469> 672 27<97 221 91 376 249 370 249 249>
VStem: 464 26
LayerCount: 2
Back
Fore
SplineSet
376 699 m 1
 370 672 l 1
 249 672 l 1
 211 490 l 1
 181 483 l 1
 221 672 l 1
 91 672 l 1
 97 699 l 1
 376 699 l 1
636 698 m 1
 658 486 l 1
 632 482 l 1
 612 666 l 1
 508 488 l 1
 469 480 l 1
 459 668 l 1
 350 490 l 1
 315 482 l 1
 444 691 l 1
 487 697 l 1
 494 512 l 1
 598 692 l 1
 636 698 l 1
EndSplineSet
EndChar
